<svg width="30" height="31" viewBox="0 0 30 31" fill="none" xmlns="http://www.w3.org/2000/svg">
<path d="M30 15.791C30 24.0753 23.2843 30.791 15 30.791C6.71573 30.791 0 24.0753 0 15.791C0 7.50674 6.71573 0.791016 15 0.791016C23.2843 0.791016 30 7.50674 30 15.791Z" fill="#050C12"/>
<path d="M13.5135 11.5021V13.4296H12V15.7865H13.5135V22.791H16.6201V15.7872H18.7054C18.7054 15.7872 18.9008 14.6571 18.9955 13.4212H16.6328V11.8093C16.6328 11.5687 16.971 11.2446 17.3062 11.2446H19V8.79102H16.6975C13.4361 8.79102 13.5135 11.15 13.5135 11.5021Z" fill="white"/>
</svg>
