<svg width="30" height="31" viewBox="0 0 30 31" fill="none" xmlns="http://www.w3.org/2000/svg">
<path d="M30 15.791C30 24.0753 23.2843 30.791 15 30.791C6.71573 30.791 0 24.0753 0 15.791C0 7.50674 6.71573 0.791016 15 0.791016C23.2843 0.791016 30 7.50674 30 15.791Z" fill="#050C12"/>
<path d="M22 9.79774C21.3906 10.2495 20.7159 10.595 20.0018 10.8209C19.6186 10.3578 19.1092 10.0296 18.5427 9.88062C17.9761 9.73164 17.3797 9.76911 16.8341 9.98797C16.2884 10.2068 15.8199 10.5965 15.4919 11.1043C15.1639 11.6121 14.9922 12.2135 15 12.8272V13.496C13.8817 13.5265 12.7735 13.2658 11.7743 12.7372C10.775 12.2087 9.91566 11.4286 9.27273 10.4665C9.27273 10.4665 6.72727 16.4853 12.4545 19.1604C11.144 20.0953 9.58274 20.564 8 20.4979C13.7273 23.8417 20.7273 20.4979 20.7273 12.8072C20.7267 12.6209 20.7096 12.4351 20.6764 12.2521C21.3258 11.579 21.7842 10.7291 22 9.79774Z" fill="white"/>
</svg>
