<svg width="30" height="31" viewBox="0 0 30 31" fill="none" xmlns="http://www.w3.org/2000/svg">
<path d="M30 15.791C30 24.0753 23.2843 30.791 15 30.791C6.71573 30.791 0 24.0753 0 15.791C0 7.50674 6.71573 0.791016 15 0.791016C23.2843 0.791016 30 7.50674 30 15.791Z" fill="#050C12"/>
<path d="M17.5799 13.8965C18.6687 13.8965 19.7128 14.329 20.4827 15.0989C21.2526 15.8688 21.6851 16.913 21.6851 18.0017V22.7912H18.9483V18.0017C18.9483 17.6388 18.8041 17.2908 18.5475 17.0341C18.2909 16.7775 17.9428 16.6333 17.5799 16.6333C17.2169 16.6333 16.8689 16.7775 16.6123 17.0341C16.3556 17.2908 16.2115 17.6388 16.2115 18.0017V22.7912H13.4746V18.0017C13.4746 16.913 13.9071 15.8688 14.677 15.0989C15.4469 14.329 16.4911 13.8965 17.5799 13.8965Z" fill="white"/>
<path d="M10.7368 14.5801H8V22.7906H10.7368V14.5801Z" fill="white"/>
<path d="M9.36842 12.5279C10.1242 12.5279 10.7368 11.9152 10.7368 11.1594C10.7368 10.4037 10.1242 9.79102 9.36842 9.79102C8.61266 9.79102 8 10.4037 8 11.1594C8 11.9152 8.61266 12.5279 9.36842 12.5279Z" fill="white"/>
</svg>
