<svg width="30" height="50" viewBox="0 0 30 50" fill="none" xmlns="http://www.w3.org/2000/svg">
<path opacity="0.3" d="M1 46.5L0.700018 46.4967C0.699127 46.5777 0.731066 46.6557 0.788565 46.7128C0.846062 46.7699 0.924227 46.8014 1.00526 46.8L1 46.5ZM26.5057 46.3526L29.5304 47.7318L29.4696 44.2682L26.4952 45.7527L26.5057 46.3526ZM1.1896 1.94462C1.18778 2.1103 1.32061 2.24608 1.48629 2.2479C1.65196 2.24972 1.78774 2.11689 1.78957 1.95121L1.1896 1.94462ZM1.7479 5.74288C1.74972 5.5772 1.61689 5.44142 1.45121 5.4396C1.28554 5.43778 1.14976 5.57061 1.14793 5.73629L1.7479 5.74288ZM1.1271 7.63212C1.12528 7.7978 1.25811 7.93358 1.42379 7.9354C1.58946 7.93722 1.72524 7.80439 1.72707 7.63871L1.1271 7.63212ZM1.6854 11.4304C1.68722 11.2647 1.55439 11.1289 1.38871 11.1271C1.22304 11.1253 1.08726 11.2581 1.08543 11.4238L1.6854 11.4304ZM1.0646 13.3196C1.06278 13.4853 1.19561 13.6211 1.36129 13.6229C1.52696 13.6247 1.66274 13.4919 1.66457 13.3262L1.0646 13.3196ZM1.6229 17.1179C1.62472 16.9522 1.49189 16.8164 1.32621 16.8146C1.16054 16.8128 1.02476 16.9456 1.02293 17.1113L1.6229 17.1179ZM1.0021 19.0071C1.00028 19.1728 1.13311 19.3086 1.29879 19.3104C1.46446 19.3122 1.60024 19.1794 1.60207 19.0137L1.0021 19.0071ZM1.5604 22.8054C1.56222 22.6397 1.42939 22.5039 1.26371 22.5021C1.09804 22.5003 0.962255 22.6331 0.960434 22.7988L1.5604 22.8054ZM0.939602 24.6946C0.93778 24.8603 1.07061 24.9961 1.23629 24.9979C1.40196 24.9997 1.53774 24.8669 1.53957 24.7012L0.939602 24.6946ZM1.4979 28.4929C1.49972 28.3272 1.36689 28.1914 1.20121 28.1896C1.03554 28.1878 0.899755 28.3206 0.897934 28.4863L1.4979 28.4929ZM0.877102 30.3821C0.87528 30.5478 1.00811 30.6836 1.17379 30.6854C1.33946 30.6872 1.47524 30.5544 1.47707 30.3887L0.877102 30.3821ZM1.4354 34.1804C1.43722 34.0147 1.30439 33.8789 1.13871 33.8771C0.973038 33.8753 0.837255 34.0081 0.835434 34.1738L1.4354 34.1804ZM0.814602 36.0696C0.81278 36.2353 0.945612 36.3711 1.11129 36.3729C1.27696 36.3747 1.41274 36.2419 1.41457 36.0762L0.814602 36.0696ZM1.3729 39.8679C1.37472 39.7022 1.24189 39.5664 1.07621 39.5646C0.910538 39.5628 0.774755 39.6956 0.772934 39.8613L1.3729 39.8679ZM0.752102 41.7571C0.75028 41.9228 0.883112 42.0586 1.04879 42.0604C1.21446 42.0622 1.35024 41.9294 1.35207 41.7637L0.752102 41.7571ZM1.3104 45.5554C1.31222 45.3897 1.17939 45.2539 1.01371 45.2521C0.848038 45.2503 0.712255 45.3831 0.710434 45.5488L1.3104 45.5554ZM1.95526 46.7833C2.12092 46.7804 2.25286 46.6437 2.24995 46.4781C2.24705 46.3124 2.1104 46.1805 1.94474 46.1834L1.95526 46.7833ZM5.74474 46.1167C5.57908 46.1196 5.44714 46.2563 5.45005 46.4219C5.45295 46.5876 5.5896 46.7195 5.75526 46.7166L5.74474 46.1167ZM7.65526 46.6833C7.82092 46.6804 7.95286 46.5437 7.94995 46.3781C7.94705 46.2124 7.8104 46.0805 7.64474 46.0834L7.65526 46.6833ZM11.4447 46.0167C11.2791 46.0196 11.1471 46.1563 11.15 46.3219C11.153 46.4876 11.2896 46.6195 11.4553 46.6166L11.4447 46.0167ZM13.3553 46.5833C13.5209 46.5804 13.6529 46.4437 13.65 46.2781C13.647 46.1124 13.5104 45.9805 13.3447 45.9834L13.3553 46.5833ZM17.1447 45.9167C16.9791 45.9196 16.8471 46.0563 16.85 46.2219C16.853 46.3876 16.9896 46.5195 17.1553 46.5166L17.1447 45.9167ZM19.0553 46.4833C19.2209 46.4804 19.3529 46.3437 19.35 46.1781C19.347 46.0124 19.2104 45.8805 19.0447 45.8834L19.0553 46.4833ZM22.8447 45.8167C22.6791 45.8196 22.5471 45.9563 22.55 46.1219C22.553 46.2876 22.6896 46.4195 22.8553 46.4166L22.8447 45.8167ZM24.7553 46.3833C24.9209 46.3804 25.0529 46.2437 25.05 46.0781C25.047 45.9124 24.9104 45.7805 24.7447 45.7834L24.7553 46.3833ZM28.5447 45.7167C28.3791 45.7196 28.2471 45.8563 28.25 46.0219C28.253 46.1876 28.3896 46.3195 28.5553 46.3166L28.5447 45.7167ZM1.20002 0.996703L1.1896 1.94462L1.78957 1.95121L1.79998 1.0033L1.20002 0.996703ZM1.14793 5.73629L1.1271 7.63212L1.72707 7.63871L1.7479 5.74288L1.14793 5.73629ZM1.08543 11.4238L1.0646 13.3196L1.66457 13.3262L1.6854 11.4304L1.08543 11.4238ZM1.02293 17.1113L1.0021 19.0071L1.60207 19.0137L1.6229 17.1179L1.02293 17.1113ZM0.960434 22.7988L0.939602 24.6946L1.53957 24.7012L1.5604 22.8054L0.960434 22.7988ZM0.897934 28.4863L0.877102 30.3821L1.47707 30.3887L1.4979 28.4929L0.897934 28.4863ZM0.835434 34.1738L0.814602 36.0696L1.41457 36.0762L1.4354 34.1804L0.835434 34.1738ZM0.772934 39.8613L0.752102 41.7571L1.35207 41.7637L1.3729 39.8679L0.772934 39.8613ZM0.710434 45.5488L0.700018 46.4967L1.29998 46.5033L1.3104 45.5554L0.710434 45.5488ZM1.00526 46.8L1.95526 46.7833L1.94474 46.1834L0.994738 46.2L1.00526 46.8ZM5.75526 46.7166L7.65526 46.6833L7.64474 46.0834L5.74474 46.1167L5.75526 46.7166ZM11.4553 46.6166L13.3553 46.5833L13.3447 45.9834L11.4447 46.0167L11.4553 46.6166ZM17.1553 46.5166L19.0553 46.4833L19.0447 45.8834L17.1447 45.9167L17.1553 46.5166ZM22.8553 46.4166L24.7553 46.3833L24.7447 45.7834L22.8447 45.8167L22.8553 46.4166ZM1 46.5L0.400036 46.4934C0.398254 46.6555 0.462133 46.8114 0.577127 46.9257C0.692123 47.0399 0.848452 47.1028 1.01052 47.0999L1 46.5ZM23.5114 46.7052L29.5608 49.4636L29.4392 42.5364L23.4904 45.5053L23.5114 46.7052ZM0.88962 1.94132C0.885979 2.27267 1.15164 2.54424 1.48299 2.54788C1.81434 2.55152 2.08591 2.28586 2.08955 1.95451L0.88962 1.94132ZM2.04788 5.74618C2.05152 5.41483 1.78586 5.14326 1.45451 5.13962C1.12316 5.13598 0.851595 5.40164 0.847954 5.73299L2.04788 5.74618ZM0.82712 7.62882C0.823479 7.96018 1.08914 8.23174 1.42049 8.23538C1.75184 8.23902 2.02341 7.97336 2.02705 7.64201L0.82712 7.62882ZM1.98538 11.4337C1.98902 11.1023 1.72336 10.8308 1.39201 10.8271C1.06066 10.8235 0.789095 11.0891 0.785454 11.4205L1.98538 11.4337ZM0.76462 13.3163C0.760979 13.6477 1.02664 13.9192 1.35799 13.9229C1.68934 13.9265 1.96091 13.6609 1.96455 13.3295L0.76462 13.3163ZM1.92288 17.1212C1.92652 16.7898 1.66086 16.5183 1.32951 16.5146C0.998159 16.511 0.726595 16.7766 0.722954 17.108L1.92288 17.1212ZM0.70212 19.0038C0.698479 19.3352 0.96414 19.6067 1.29549 19.6104C1.62684 19.614 1.89841 19.3484 1.90205 19.017L0.70212 19.0038ZM1.86038 22.8087C1.86402 22.4773 1.59836 22.2058 1.26701 22.2021C0.935659 22.1985 0.664095 22.4641 0.660454 22.7955L1.86038 22.8087ZM0.63962 24.6913C0.635979 25.0227 0.90164 25.2942 1.23299 25.2979C1.56434 25.3015 1.83591 25.0359 1.83955 24.7045L0.63962 24.6913ZM1.79788 28.4962C1.80152 28.1648 1.53586 27.8933 1.20451 27.8896C0.873159 27.886 0.601595 28.1516 0.597954 28.483L1.79788 28.4962ZM0.57712 30.3788C0.573479 30.7102 0.83914 30.9817 1.17049 30.9854C1.50184 30.989 1.77341 30.7234 1.77705 30.392L0.57712 30.3788ZM1.73538 34.1837C1.73902 33.8523 1.47336 33.5808 1.14201 33.5771C0.810659 33.5735 0.539095 33.8391 0.535452 34.1705L1.73538 34.1837ZM0.51462 36.0663C0.510979 36.3977 0.77664 36.6692 1.10799 36.6729C1.43934 36.6765 1.71091 36.4109 1.71455 36.0795L0.51462 36.0663ZM1.67288 39.8712C1.67652 39.5398 1.41086 39.2683 1.07951 39.2646C0.748159 39.261 0.476595 39.5266 0.472952 39.858L1.67288 39.8712ZM0.45212 41.7538C0.448479 42.0852 0.71414 42.3567 1.04549 42.3604C1.37684 42.364 1.64841 42.0984 1.65205 41.767L0.45212 41.7538ZM1.61038 45.5587C1.61402 45.2273 1.34836 44.9558 1.01701 44.9521C0.685659 44.9485 0.414095 45.2141 0.410452 45.5455L1.61038 45.5587ZM1.96053 47.0832C2.29185 47.0774 2.55572 46.8041 2.54991 46.4728C2.54409 46.1415 2.2708 45.8776 1.93948 45.8834L1.96053 47.0832ZM5.73948 45.8168C5.40816 45.8226 5.14428 46.0959 5.15009 46.4272C5.1559 46.7585 5.4292 47.0224 5.76052 47.0166L5.73948 45.8168ZM7.66052 46.9832C7.99184 46.9774 8.25572 46.7041 8.24991 46.3728C8.24409 46.0415 7.97079 45.7776 7.63947 45.7834L7.66052 46.9832ZM11.4395 45.7168C11.1082 45.7226 10.8443 45.9959 10.8501 46.3272C10.8559 46.6585 11.1292 46.9224 11.4605 46.9166L11.4395 45.7168ZM13.3605 46.8832C13.6918 46.8774 13.9557 46.6041 13.9499 46.2728C13.9441 45.9415 13.6708 45.6776 13.3395 45.6834L13.3605 46.8832ZM17.1395 45.6168C16.8082 45.6226 16.5443 45.8959 16.5501 46.2272C16.5559 46.5585 16.8292 46.8224 17.1605 46.8166L17.1395 45.6168ZM19.0605 46.7832C19.3918 46.7774 19.6557 46.5041 19.6499 46.1728C19.6441 45.8415 19.3708 45.5776 19.0395 45.5834L19.0605 46.7832ZM22.8395 45.5168C22.5082 45.5226 22.2443 45.7959 22.2501 46.1272C22.2559 46.4585 22.5292 46.7224 22.8605 46.7166L22.8395 45.5168ZM24.7605 46.6832C25.0918 46.6774 25.3557 46.4041 25.3499 46.0728C25.3441 45.7415 25.0708 45.4776 24.7395 45.4834L24.7605 46.6832ZM28.5395 45.4168C28.2082 45.4226 27.9443 45.6959 27.9501 46.0272C27.9559 46.3585 28.2292 46.6224 28.5605 46.6166L28.5395 45.4168ZM0.900036 0.993407L0.88962 1.94132L2.08955 1.95451L2.09996 1.00659L0.900036 0.993407ZM0.847954 5.73299L0.82712 7.62882L2.02705 7.64201L2.04788 5.74618L0.847954 5.73299ZM0.785454 11.4205L0.76462 13.3163L1.96455 13.3295L1.98538 11.4337L0.785454 11.4205ZM0.722954 17.108L0.70212 19.0038L1.90205 19.017L1.92288 17.1212L0.722954 17.108ZM0.660454 22.7955L0.63962 24.6913L1.83955 24.7045L1.86038 22.8087L0.660454 22.7955ZM0.597954 28.483L0.57712 30.3788L1.77705 30.392L1.79788 28.4962L0.597954 28.483ZM0.535452 34.1705L0.51462 36.0663L1.71455 36.0795L1.73538 34.1837L0.535452 34.1705ZM0.472952 39.858L0.45212 41.7538L1.65205 41.767L1.67288 39.8712L0.472952 39.858ZM0.410452 45.5455L0.400036 46.4934L1.59996 46.5066L1.61038 45.5587L0.410452 45.5455ZM1.01052 47.0999L1.96053 47.0832L1.93948 45.8834L0.989475 45.9001L1.01052 47.0999ZM5.76052 47.0166L7.66052 46.9832L7.63947 45.7834L5.73948 45.8168L5.76052 47.0166ZM11.4605 46.9166L13.3605 46.8832L13.3395 45.6834L11.4395 45.7168L11.4605 46.9166ZM17.1605 46.8166L19.0605 46.7832L19.0395 45.5834L17.1395 45.6168L17.1605 46.8166ZM22.8605 46.7166L24.7605 46.6832L24.7395 45.4834L22.8395 45.5168L22.8605 46.7166Z" fill="white"/>
</svg>
