<svg width="421" height="40" viewBox="0 0 421 40" fill="none" xmlns="http://www.w3.org/2000/svg">
<path d="M0.6875 7.46617C0.6875 6.37817 0.932833 5.40217 1.4235 4.53817C1.91417 3.66351 2.58083 2.98084 3.4235 2.49017C4.27683 1.99951 5.22083 1.75417 6.2555 1.75417C7.4715 1.75417 8.53283 2.04751 9.4395 2.63417C10.3462 3.22084 11.0075 4.05284 11.4235 5.13017H9.6795C9.37017 4.45817 8.92217 3.94084 8.3355 3.57817C7.7595 3.21551 7.06617 3.03417 6.2555 3.03417C5.47683 3.03417 4.77817 3.21551 4.1595 3.57817C3.54083 3.94084 3.0555 4.45817 2.7035 5.13017C2.3515 5.79151 2.1755 6.57017 2.1755 7.46617C2.1755 8.35151 2.3515 9.13017 2.7035 9.80217C3.0555 10.4635 3.54083 10.9755 4.1595 11.3382C4.77817 11.7008 5.47683 11.8822 6.2555 11.8822C7.06617 11.8822 7.7595 11.7062 8.3355 11.3542C8.92217 10.9915 9.37017 10.4742 9.6795 9.80217H11.4235C11.0075 10.8688 10.3462 11.6955 9.4395 12.2822C8.53283 12.8582 7.4715 13.1462 6.2555 13.1462C5.22083 13.1462 4.27683 12.9062 3.4235 12.4262C2.58083 11.9355 1.91417 11.2582 1.4235 10.3942C0.932833 9.53017 0.6875 8.55417 0.6875 7.46617Z" fill="white" fill-opacity="0.9"/>
<path d="M17.4149 13.1942C16.5935 13.1942 15.8469 13.0075 15.1749 12.6342C14.5135 12.2608 13.9909 11.7328 13.6069 11.0502C13.2335 10.3568 13.0469 9.55684 13.0469 8.65017C13.0469 7.75417 13.2389 6.96484 13.6229 6.28217C14.0175 5.58884 14.5509 5.06084 15.2229 4.69817C15.8949 4.32484 16.6469 4.13817 17.4789 4.13817C18.3109 4.13817 19.0629 4.32484 19.7349 4.69817C20.4069 5.06084 20.9349 5.58351 21.3189 6.26617C21.7135 6.94884 21.9109 7.74351 21.9109 8.65017C21.9109 9.55684 21.7082 10.3568 21.3029 11.0502C20.9082 11.7328 20.3695 12.2608 19.6869 12.6342C19.0042 13.0075 18.2469 13.1942 17.4149 13.1942ZM17.4149 11.9142C17.9375 11.9142 18.4282 11.7915 18.8869 11.5462C19.3455 11.3008 19.7135 10.9328 19.9909 10.4422C20.2789 9.95151 20.4229 9.35417 20.4229 8.65017C20.4229 7.94617 20.2842 7.34884 20.0069 6.85817C19.7295 6.36751 19.3669 6.00484 18.9189 5.77017C18.4709 5.52484 17.9855 5.40217 17.4629 5.40217C16.9295 5.40217 16.4389 5.52484 15.9909 5.77017C15.5535 6.00484 15.2015 6.36751 14.9349 6.85817C14.6682 7.34884 14.5349 7.94617 14.5349 8.65017C14.5349 9.36484 14.6629 9.96751 14.9189 10.4582C15.1855 10.9488 15.5375 11.3168 15.9749 11.5622C16.4122 11.7968 16.8922 11.9142 17.4149 11.9142Z" fill="white" fill-opacity="0.9"/>
<path d="M28.0972 4.12217C29.1639 4.12217 30.0279 4.44751 30.6893 5.09817C31.3506 5.73817 31.6813 6.66617 31.6813 7.88217V13.0502H30.2413V8.09017C30.2413 7.21551 30.0226 6.54884 29.5853 6.09017C29.1479 5.62084 28.5506 5.38617 27.7933 5.38617C27.0253 5.38617 26.4119 5.62617 25.9533 6.10617C25.5053 6.58617 25.2812 7.28484 25.2812 8.20217V13.0502H23.8253V4.28217H25.2812V5.53017C25.5693 5.08217 25.9586 4.73551 26.4493 4.49017C26.9506 4.24484 27.4999 4.12217 28.0972 4.12217Z" fill="white" fill-opacity="0.9"/>
<path d="M35.8356 5.48217V10.6502C35.8356 11.0768 35.9263 11.3808 36.1076 11.5622C36.289 11.7328 36.6036 11.8182 37.0516 11.8182H38.1236V13.0502H36.8116C36.001 13.0502 35.393 12.8635 34.9876 12.4902C34.5823 12.1168 34.3796 11.5035 34.3796 10.6502V5.48217H33.2436V4.28217H34.3796V2.07417H35.8356V4.28217H38.1236V5.48217H35.8356Z" fill="white" fill-opacity="0.9"/>
<path d="M41.3438 5.70617C41.5998 5.20484 41.9624 4.81551 42.4318 4.53817C42.9118 4.26084 43.4931 4.12217 44.1758 4.12217V5.62617H43.7918C42.1598 5.62617 41.3438 6.51151 41.3438 8.28217V13.0502H39.8877V4.28217H41.3438V5.70617Z" fill="white" fill-opacity="0.9"/>
<path d="M45.3125 8.63417C45.3125 7.73817 45.4938 6.95417 45.8565 6.28217C46.2192 5.59951 46.7152 5.07151 47.3445 4.69817C47.9845 4.32484 48.6938 4.13817 49.4725 4.13817C50.2405 4.13817 50.9072 4.30351 51.4725 4.63417C52.0378 4.96484 52.4592 5.38084 52.7365 5.88217V4.28217H54.2085V13.0502H52.7365V11.4182C52.4485 11.9302 52.0165 12.3568 51.4405 12.6982C50.8752 13.0288 50.2138 13.1942 49.4565 13.1942C48.6778 13.1942 47.9738 13.0022 47.3445 12.6182C46.7152 12.2342 46.2192 11.6955 45.8565 11.0022C45.4938 10.3088 45.3125 9.51951 45.3125 8.63417ZM52.7365 8.65017C52.7365 7.98884 52.6032 7.41284 52.3365 6.92217C52.0698 6.43151 51.7072 6.05817 51.2485 5.80217C50.8005 5.53551 50.3045 5.40217 49.7605 5.40217C49.2165 5.40217 48.7205 5.53017 48.2725 5.78617C47.8245 6.04217 47.4672 6.41551 47.2005 6.90617C46.9338 7.39684 46.8005 7.97284 46.8005 8.63417C46.8005 9.30617 46.9338 9.89284 47.2005 10.3942C47.4672 10.8848 47.8245 11.2635 48.2725 11.5302C48.7205 11.7862 49.2165 11.9142 49.7605 11.9142C50.3045 11.9142 50.8005 11.7862 51.2485 11.5302C51.7072 11.2635 52.0698 10.8848 52.3365 10.3942C52.6032 9.89284 52.7365 9.31151 52.7365 8.65017Z" fill="white" fill-opacity="0.9"/>
<path d="M58.125 5.70617C58.381 5.20484 58.7437 4.81551 59.213 4.53817C59.693 4.26084 60.2743 4.12217 60.957 4.12217V5.62617H60.573C58.941 5.62617 58.125 6.51151 58.125 8.28217V13.0502H56.669V4.28217H58.125V5.70617Z" fill="white" fill-opacity="0.9"/>
<path d="M70.1897 4.28217L64.9097 17.1782H63.4058L65.1337 12.9542L61.5978 4.28217H63.2137L65.9657 11.3862L68.6857 4.28217H70.1897Z" fill="white" fill-opacity="0.9"/>
<path d="M77.695 5.48217V10.6502C77.695 11.0768 77.7857 11.3808 77.967 11.5622C78.1483 11.7328 78.463 11.8182 78.911 11.8182H79.983V13.0502H78.671C77.8603 13.0502 77.2523 12.8635 76.847 12.4902C76.4417 12.1168 76.239 11.5035 76.239 10.6502V5.48217H75.103V4.28217H76.239V2.07417H77.695V4.28217H79.983V5.48217H77.695Z" fill="white" fill-opacity="0.9"/>
<path d="M85.5711 13.1942C84.7498 13.1942 84.0031 13.0075 83.3311 12.6342C82.6698 12.2608 82.1471 11.7328 81.7631 11.0502C81.3898 10.3568 81.2031 9.55684 81.2031 8.65017C81.2031 7.75417 81.3951 6.96484 81.7791 6.28217C82.1738 5.58884 82.7071 5.06084 83.3791 4.69817C84.0511 4.32484 84.8031 4.13817 85.6351 4.13817C86.4671 4.13817 87.2191 4.32484 87.8911 4.69817C88.5631 5.06084 89.0911 5.58351 89.4751 6.26617C89.8698 6.94884 90.0671 7.74351 90.0671 8.65017C90.0671 9.55684 89.8645 10.3568 89.4591 11.0502C89.0645 11.7328 88.5258 12.2608 87.8431 12.6342C87.1605 13.0075 86.4031 13.1942 85.5711 13.1942ZM85.5711 11.9142C86.0938 11.9142 86.5845 11.7915 87.0431 11.5462C87.5018 11.3008 87.8698 10.9328 88.1471 10.4422C88.4351 9.95151 88.5791 9.35417 88.5791 8.65017C88.5791 7.94617 88.4405 7.34884 88.1631 6.85817C87.8858 6.36751 87.5231 6.00484 87.0751 5.77017C86.6271 5.52484 86.1418 5.40217 85.6191 5.40217C85.0858 5.40217 84.5951 5.52484 84.1471 5.77017C83.7098 6.00484 83.3578 6.36751 83.0911 6.85817C82.8245 7.34884 82.6911 7.94617 82.6911 8.65017C82.6911 9.36484 82.8191 9.96751 83.0751 10.4582C83.3418 10.9488 83.6938 11.3168 84.1311 11.5622C84.5685 11.7968 85.0485 11.9142 85.5711 11.9142Z" fill="white" fill-opacity="0.9"/>
<path d="M97.7031 5.89817C97.9911 5.39684 98.4178 4.98084 98.9831 4.65017C99.5591 4.30884 100.226 4.13817 100.983 4.13817C101.762 4.13817 102.466 4.32484 103.095 4.69817C103.735 5.07151 104.236 5.59951 104.599 6.28217C104.962 6.95417 105.143 7.73817 105.143 8.63417C105.143 9.51951 104.962 10.3088 104.599 11.0022C104.236 11.6955 103.735 12.2342 103.095 12.6182C102.466 13.0022 101.762 13.1942 100.983 13.1942C100.236 13.1942 99.5751 13.0288 98.9991 12.6982C98.4338 12.3568 98.0018 11.9355 97.7031 11.4342V17.2102H96.2471V4.28217H97.7031V5.89817ZM103.655 8.63417C103.655 7.97284 103.522 7.39684 103.255 6.90617C102.988 6.41551 102.626 6.04217 102.167 5.78617C101.719 5.53017 101.223 5.40217 100.679 5.40217C100.146 5.40217 99.6498 5.53551 99.1911 5.80217C98.7431 6.05817 98.3805 6.43684 98.1031 6.93817C97.8364 7.42884 97.7031 7.99951 97.7031 8.65017C97.7031 9.31151 97.8364 9.89284 98.1031 10.3942C98.3805 10.8848 98.7431 11.2635 99.1911 11.5302C99.6498 11.7862 100.146 11.9142 100.679 11.9142C101.223 11.9142 101.719 11.7862 102.167 11.5302C102.626 11.2635 102.988 10.8848 103.255 10.3942C103.522 9.89284 103.655 9.30617 103.655 8.63417Z" fill="white" fill-opacity="0.9"/>
<path d="M110.884 13.1942C110.062 13.1942 109.316 13.0075 108.644 12.6342C107.982 12.2608 107.46 11.7328 107.076 11.0502C106.702 10.3568 106.516 9.55684 106.516 8.65017C106.516 7.75417 106.708 6.96484 107.092 6.28217C107.486 5.58884 108.02 5.06084 108.692 4.69817C109.364 4.32484 110.116 4.13817 110.948 4.13817C111.78 4.13817 112.532 4.32484 113.204 4.69817C113.876 5.06084 114.404 5.58351 114.788 6.26617C115.182 6.94884 115.38 7.74351 115.38 8.65017C115.38 9.55684 115.177 10.3568 114.772 11.0502C114.377 11.7328 113.838 12.2608 113.156 12.6342C112.473 13.0075 111.716 13.1942 110.884 13.1942ZM110.884 11.9142C111.406 11.9142 111.897 11.7915 112.356 11.5462C112.814 11.3008 113.182 10.9328 113.46 10.4422C113.748 9.95151 113.892 9.35417 113.892 8.65017C113.892 7.94617 113.753 7.34884 113.476 6.85817C113.198 6.36751 112.836 6.00484 112.388 5.77017C111.94 5.52484 111.454 5.40217 110.932 5.40217C110.398 5.40217 109.908 5.52484 109.46 5.77017C109.022 6.00484 108.67 6.36751 108.404 6.85817C108.137 7.34884 108.004 7.94617 108.004 8.65017C108.004 9.36484 108.132 9.96751 108.388 10.4582C108.654 10.9488 109.006 11.3168 109.444 11.5622C109.881 11.7968 110.361 11.9142 110.884 11.9142Z" fill="white" fill-opacity="0.9"/>
<path d="M118.75 5.89817C119.038 5.39684 119.465 4.98084 120.03 4.65017C120.606 4.30884 121.273 4.13817 122.03 4.13817C122.809 4.13817 123.513 4.32484 124.142 4.69817C124.782 5.07151 125.283 5.59951 125.646 6.28217C126.009 6.95417 126.19 7.73817 126.19 8.63417C126.19 9.51951 126.009 10.3088 125.646 11.0022C125.283 11.6955 124.782 12.2342 124.142 12.6182C123.513 13.0022 122.809 13.1942 122.03 13.1942C121.283 13.1942 120.622 13.0288 120.046 12.6982C119.481 12.3568 119.049 11.9355 118.75 11.4342V17.2102H117.294V4.28217H118.75V5.89817ZM124.702 8.63417C124.702 7.97284 124.569 7.39684 124.302 6.90617C124.035 6.41551 123.673 6.04217 123.214 5.78617C122.766 5.53017 122.27 5.40217 121.726 5.40217C121.193 5.40217 120.697 5.53551 120.238 5.80217C119.79 6.05817 119.427 6.43684 119.15 6.93817C118.883 7.42884 118.75 7.99951 118.75 8.65017C118.75 9.31151 118.883 9.89284 119.15 10.3942C119.427 10.8848 119.79 11.2635 120.238 11.5302C120.697 11.7862 121.193 11.9142 121.726 11.9142C122.27 11.9142 122.766 11.7862 123.214 11.5302C123.673 11.2635 124.035 10.8848 124.302 10.3942C124.569 9.89284 124.702 9.30617 124.702 8.63417Z" fill="white" fill-opacity="0.9"/>
<path d="M135.882 4.28217V13.0502H134.426V11.7542C134.149 12.2022 133.76 12.5542 133.258 12.8102C132.768 13.0555 132.224 13.1782 131.626 13.1782C130.944 13.1782 130.331 13.0395 129.786 12.7622C129.242 12.4742 128.811 12.0475 128.49 11.4822C128.181 10.9168 128.026 10.2288 128.026 9.41817V4.28217H129.466V9.22617C129.466 10.0902 129.685 10.7568 130.122 11.2262C130.56 11.6848 131.157 11.9142 131.914 11.9142C132.693 11.9142 133.307 11.6742 133.755 11.1942C134.202 10.7142 134.426 10.0155 134.426 9.09817V4.28217H135.882Z" fill="white" fill-opacity="0.9"/>
<path d="M139.797 1.21017V13.0502H138.341V1.21017H139.797Z" fill="white" fill-opacity="0.9"/>
<path d="M141.734 8.63417C141.734 7.73817 141.916 6.95417 142.278 6.28217C142.641 5.59951 143.137 5.07151 143.766 4.69817C144.406 4.32484 145.116 4.13817 145.894 4.13817C146.662 4.13817 147.329 4.30351 147.894 4.63417C148.46 4.96484 148.881 5.38084 149.158 5.88217V4.28217H150.63V13.0502H149.158V11.4182C148.87 11.9302 148.438 12.3568 147.862 12.6982C147.297 13.0288 146.636 13.1942 145.878 13.1942C145.1 13.1942 144.396 13.0022 143.766 12.6182C143.137 12.2342 142.641 11.6955 142.278 11.0022C141.916 10.3088 141.734 9.51951 141.734 8.63417ZM149.158 8.65017C149.158 7.98884 149.025 7.41284 148.758 6.92217C148.492 6.43151 148.129 6.05817 147.67 5.80217C147.222 5.53551 146.726 5.40217 146.182 5.40217C145.638 5.40217 145.142 5.53017 144.694 5.78617C144.246 6.04217 143.889 6.41551 143.622 6.90617C143.356 7.39684 143.222 7.97284 143.222 8.63417C143.222 9.30617 143.356 9.89284 143.622 10.3942C143.889 10.8848 144.246 11.2635 144.694 11.5302C145.142 11.7862 145.638 11.9142 146.182 11.9142C146.726 11.9142 147.222 11.7862 147.67 11.5302C148.129 11.2635 148.492 10.8848 148.758 10.3942C149.025 9.89284 149.158 9.31151 149.158 8.65017Z" fill="white" fill-opacity="0.9"/>
<path d="M154.547 5.70617C154.803 5.20484 155.166 4.81551 155.635 4.53817C156.115 4.26084 156.696 4.12217 157.379 4.12217V5.62617H156.995C155.363 5.62617 154.547 6.51151 154.547 8.28217V13.0502H153.091V4.28217H154.547V5.70617Z" fill="white" fill-opacity="0.9"/>
<path d="M164.781 5.91417C165.08 5.39151 165.517 4.96484 166.093 4.63417C166.669 4.30351 167.325 4.13817 168.061 4.13817C168.851 4.13817 169.56 4.32484 170.189 4.69817C170.819 5.07151 171.315 5.59951 171.677 6.28217C172.04 6.95417 172.221 7.73817 172.221 8.63417C172.221 9.51951 172.04 10.3088 171.677 11.0022C171.315 11.6955 170.813 12.2342 170.173 12.6182C169.544 13.0022 168.84 13.1942 168.061 13.1942C167.304 13.1942 166.637 13.0288 166.061 12.6982C165.496 12.3675 165.069 11.9462 164.781 11.4342V13.0502H163.325V1.21017H164.781V5.91417ZM170.733 8.63417C170.733 7.97284 170.6 7.39684 170.333 6.90617C170.067 6.41551 169.704 6.04217 169.245 5.78617C168.797 5.53017 168.301 5.40217 167.757 5.40217C167.224 5.40217 166.728 5.53551 166.269 5.80217C165.821 6.05817 165.459 6.43684 165.181 6.93817C164.915 7.42884 164.781 7.99951 164.781 8.65017C164.781 9.31151 164.915 9.89284 165.181 10.3942C165.459 10.8848 165.821 11.2635 166.269 11.5302C166.728 11.7862 167.224 11.9142 167.757 11.9142C168.301 11.9142 168.797 11.7862 169.245 11.5302C169.704 11.2635 170.067 10.8848 170.333 10.3942C170.6 9.89284 170.733 9.30617 170.733 8.63417Z" fill="white" fill-opacity="0.9"/>
<path d="M182.138 8.33017C182.138 8.60751 182.122 8.90084 182.09 9.21017H175.082C175.135 10.0742 175.428 10.7515 175.962 11.2422C176.506 11.7222 177.162 11.9622 177.93 11.9622C178.559 11.9622 179.082 11.8182 179.498 11.5302C179.924 11.2315 180.223 10.8368 180.394 10.3462H181.962C181.727 11.1888 181.258 11.8768 180.554 12.4102C179.85 12.9328 178.975 13.1942 177.93 13.1942C177.098 13.1942 176.351 13.0075 175.69 12.6342C175.039 12.2608 174.527 11.7328 174.154 11.0502C173.78 10.3568 173.594 9.55684 173.594 8.65017C173.594 7.74351 173.775 6.94884 174.138 6.26617C174.5 5.58351 175.007 5.06084 175.658 4.69817C176.319 4.32484 177.076 4.13817 177.93 4.13817C178.762 4.13817 179.498 4.31951 180.138 4.68217C180.778 5.04484 181.268 5.54617 181.61 6.18617C181.962 6.81551 182.138 7.53017 182.138 8.33017ZM180.634 8.02617C180.634 7.47151 180.511 6.99684 180.266 6.60217C180.02 6.19684 179.684 5.89284 179.258 5.69017C178.842 5.47684 178.378 5.37017 177.866 5.37017C177.13 5.37017 176.5 5.60484 175.978 6.07417C175.466 6.54351 175.172 7.19417 175.098 8.02617H180.634Z" fill="white" fill-opacity="0.9"/>
<path d="M185.516 1.21017V13.0502H184.06V1.21017H185.516Z" fill="white" fill-opacity="0.9"/>
<path d="M188.749 2.85817C188.472 2.85817 188.237 2.76217 188.045 2.57017C187.853 2.37817 187.757 2.14351 187.757 1.86617C187.757 1.58884 187.853 1.35417 188.045 1.16217C188.237 0.970172 188.472 0.874172 188.749 0.874172C189.016 0.874172 189.24 0.970172 189.421 1.16217C189.613 1.35417 189.709 1.58884 189.709 1.86617C189.709 2.14351 189.613 2.37817 189.421 2.57017C189.24 2.76217 189.016 2.85817 188.749 2.85817ZM189.453 4.28217V13.0502H187.997V4.28217H189.453Z" fill="white" fill-opacity="0.9"/>
<path d="M199.935 8.33017C199.935 8.60751 199.919 8.90084 199.887 9.21017H192.879C192.932 10.0742 193.225 10.7515 193.759 11.2422C194.303 11.7222 194.959 11.9622 195.727 11.9622C196.356 11.9622 196.879 11.8182 197.295 11.5302C197.721 11.2315 198.02 10.8368 198.191 10.3462H199.759C199.524 11.1888 199.055 11.8768 198.351 12.4102C197.647 12.9328 196.772 13.1942 195.727 13.1942C194.895 13.1942 194.148 13.0075 193.487 12.6342C192.836 12.2608 192.324 11.7328 191.951 11.0502C191.577 10.3568 191.391 9.55684 191.391 8.65017C191.391 7.74351 191.572 6.94884 191.935 6.26617C192.297 5.58351 192.804 5.06084 193.455 4.69817C194.116 4.32484 194.873 4.13817 195.727 4.13817C196.559 4.13817 197.295 4.31951 197.935 4.68217C198.575 5.04484 199.065 5.54617 199.407 6.18617C199.759 6.81551 199.935 7.53017 199.935 8.33017ZM198.431 8.02617C198.431 7.47151 198.308 6.99684 198.063 6.60217C197.817 6.19684 197.481 5.89284 197.055 5.69017C196.639 5.47684 196.175 5.37017 195.663 5.37017C194.927 5.37017 194.297 5.60484 193.775 6.07417C193.263 6.54351 192.969 7.19417 192.895 8.02617H198.431Z" fill="white" fill-opacity="0.9"/>
<path d="M205.424 5.48217H203.585V13.0502H202.128V5.48217H200.992V4.28217H202.128V3.65817C202.128 2.67684 202.379 1.96217 202.88 1.51417C203.392 1.05551 204.208 0.826172 205.328 0.826172V2.04217C204.688 2.04217 204.235 2.17017 203.968 2.42617C203.712 2.67151 203.585 3.08217 203.585 3.65817V4.28217H205.424V5.48217Z" fill="white" fill-opacity="0.9"/>
<path d="M208.626 11.0342L206.834 15.3382H205.858L207.026 11.0342H208.626Z" fill="white" fill-opacity="0.9"/>
<path d="M216.016 11.8662H219.92V13.0502H214.56V1.89817H216.016V11.8662Z" fill="white" fill-opacity="0.9"/>
<path d="M225.29 13.1942C224.469 13.1942 223.722 13.0075 223.05 12.6342C222.389 12.2608 221.866 11.7328 221.482 11.0502C221.109 10.3568 220.922 9.55684 220.922 8.65017C220.922 7.75417 221.114 6.96484 221.498 6.28217C221.893 5.58884 222.426 5.06084 223.098 4.69817C223.77 4.32484 224.522 4.13817 225.354 4.13817C226.186 4.13817 226.938 4.32484 227.61 4.69817C228.282 5.06084 228.81 5.58351 229.194 6.26617C229.589 6.94884 229.786 7.74351 229.786 8.65017C229.786 9.55684 229.583 10.3568 229.178 11.0502C228.783 11.7328 228.245 12.2608 227.562 12.6342C226.879 13.0075 226.122 13.1942 225.29 13.1942ZM225.29 11.9142C225.813 11.9142 226.303 11.7915 226.762 11.5462C227.221 11.3008 227.589 10.9328 227.866 10.4422C228.154 9.95151 228.298 9.35417 228.298 8.65017C228.298 7.94617 228.159 7.34884 227.882 6.85817C227.605 6.36751 227.242 6.00484 226.794 5.77017C226.346 5.52484 225.861 5.40217 225.338 5.40217C224.805 5.40217 224.314 5.52484 223.866 5.77017C223.429 6.00484 223.077 6.36751 222.81 6.85817C222.543 7.34884 222.41 7.94617 222.41 8.65017C222.41 9.36484 222.538 9.96751 222.794 10.4582C223.061 10.9488 223.413 11.3168 223.85 11.5622C224.287 11.7968 224.767 11.9142 225.29 11.9142Z" fill="white" fill-opacity="0.9"/>
<path d="M233.156 5.70617C233.412 5.20484 233.775 4.81551 234.244 4.53817C234.724 4.26084 235.306 4.12217 235.988 4.12217V5.62617H235.604C233.972 5.62617 233.156 6.51151 233.156 8.28217V13.0502H231.7V4.28217H233.156V5.70617Z" fill="white" fill-opacity="0.9"/>
<path d="M245.669 8.33017C245.669 8.60751 245.653 8.90084 245.621 9.21017H238.613C238.666 10.0742 238.96 10.7515 239.493 11.2422C240.037 11.7222 240.693 11.9622 241.461 11.9622C242.09 11.9622 242.613 11.8182 243.029 11.5302C243.456 11.2315 243.754 10.8368 243.925 10.3462H245.493C245.258 11.1888 244.789 11.8768 244.085 12.4102C243.381 12.9328 242.506 13.1942 241.461 13.1942C240.629 13.1942 239.882 13.0075 239.221 12.6342C238.57 12.2608 238.058 11.7328 237.685 11.0502C237.312 10.3568 237.125 9.55684 237.125 8.65017C237.125 7.74351 237.306 6.94884 237.669 6.26617C238.032 5.58351 238.538 5.06084 239.189 4.69817C239.85 4.32484 240.608 4.13817 241.461 4.13817C242.293 4.13817 243.029 4.31951 243.669 4.68217C244.309 5.04484 244.8 5.54617 245.141 6.18617C245.493 6.81551 245.669 7.53017 245.669 8.33017ZM244.165 8.02617C244.165 7.47151 244.042 6.99684 243.797 6.60217C243.552 6.19684 243.216 5.89284 242.789 5.69017C242.373 5.47684 241.909 5.37017 241.397 5.37017C240.661 5.37017 240.032 5.60484 239.509 6.07417C238.997 6.54351 238.704 7.19417 238.629 8.02617H244.165Z" fill="white" fill-opacity="0.9"/>
<path d="M258.135 4.12217C258.818 4.12217 259.426 4.26617 259.959 4.55417C260.492 4.83151 260.914 5.25284 261.223 5.81817C261.532 6.38351 261.687 7.07151 261.687 7.88217V13.0502H260.247V8.09017C260.247 7.21551 260.028 6.54884 259.591 6.09017C259.164 5.62084 258.583 5.38617 257.847 5.38617C257.09 5.38617 256.487 5.63151 256.039 6.12217C255.591 6.60217 255.367 7.30084 255.367 8.21817V13.0502H253.927V8.09017C253.927 7.21551 253.708 6.54884 253.271 6.09017C252.844 5.62084 252.263 5.38617 251.527 5.38617C250.77 5.38617 250.167 5.63151 249.719 6.12217C249.271 6.60217 249.047 7.30084 249.047 8.21817V13.0502H247.591V4.28217H249.047V5.54617C249.335 5.08751 249.719 4.73551 250.199 4.49017C250.69 4.24484 251.228 4.12217 251.815 4.12217C252.551 4.12217 253.202 4.28751 253.767 4.61817C254.332 4.94884 254.754 5.43417 255.031 6.07417C255.276 5.45551 255.682 4.97551 256.247 4.63417C256.812 4.29284 257.442 4.12217 258.135 4.12217Z" fill="white" fill-opacity="0.9"/>
<path d="M269.797 1.89817V13.0502H268.341V1.89817H269.797Z" fill="white" fill-opacity="0.9"/>
<path d="M273.734 5.89817C274.022 5.39684 274.449 4.98084 275.014 4.65017C275.59 4.30884 276.257 4.13817 277.014 4.13817C277.793 4.13817 278.497 4.32484 279.126 4.69817C279.766 5.07151 280.268 5.59951 280.63 6.28217C280.993 6.95417 281.174 7.73817 281.174 8.63417C281.174 9.51951 280.993 10.3088 280.63 11.0022C280.268 11.6955 279.766 12.2342 279.126 12.6182C278.497 13.0022 277.793 13.1942 277.014 13.1942C276.268 13.1942 275.606 13.0288 275.03 12.6982C274.465 12.3568 274.033 11.9355 273.734 11.4342V17.2102H272.278V4.28217H273.734V5.89817ZM279.686 8.63417C279.686 7.97284 279.553 7.39684 279.286 6.90617C279.02 6.41551 278.657 6.04217 278.198 5.78617C277.75 5.53017 277.254 5.40217 276.71 5.40217C276.177 5.40217 275.681 5.53551 275.222 5.80217C274.774 6.05817 274.412 6.43684 274.134 6.93817C273.868 7.42884 273.734 7.99951 273.734 8.65017C273.734 9.31151 273.868 9.89284 274.134 10.3942C274.412 10.8848 274.774 11.2635 275.222 11.5302C275.681 11.7862 276.177 11.9142 276.71 11.9142C277.254 11.9142 277.75 11.7862 278.198 11.5302C278.657 11.2635 279.02 10.8848 279.286 10.3942C279.553 9.89284 279.686 9.30617 279.686 8.63417Z" fill="white" fill-opacity="0.9"/>
<path d="M286.195 13.1942C285.523 13.1942 284.92 13.0822 284.387 12.8582C283.854 12.6235 283.432 12.3035 283.123 11.8982C282.814 11.4822 282.643 11.0075 282.611 10.4742H284.115C284.158 10.9115 284.36 11.2688 284.723 11.5462C285.096 11.8235 285.582 11.9622 286.179 11.9622C286.734 11.9622 287.171 11.8395 287.491 11.5942C287.811 11.3488 287.971 11.0395 287.971 10.6662C287.971 10.2822 287.8 9.99951 287.459 9.81817C287.118 9.62617 286.59 9.43951 285.875 9.25817C285.224 9.08751 284.691 8.91684 284.275 8.74617C283.87 8.56484 283.518 8.30351 283.219 7.96217C282.931 7.61017 282.787 7.15151 282.787 6.58617C282.787 6.13817 282.92 5.72751 283.187 5.35417C283.454 4.98084 283.832 4.68751 284.323 4.47417C284.814 4.25017 285.374 4.13817 286.003 4.13817C286.974 4.13817 287.758 4.38351 288.355 4.87417C288.952 5.36484 289.272 6.03684 289.315 6.89017H287.859C287.827 6.43151 287.64 6.06351 287.299 5.78617C286.968 5.50884 286.52 5.37017 285.955 5.37017C285.432 5.37017 285.016 5.48217 284.707 5.70617C284.398 5.93017 284.243 6.22351 284.243 6.58617C284.243 6.87417 284.334 7.11417 284.515 7.30617C284.707 7.48751 284.942 7.63684 285.219 7.75417C285.507 7.86084 285.902 7.98351 286.403 8.12217C287.032 8.29284 287.544 8.46351 287.939 8.63417C288.334 8.79417 288.67 9.03951 288.947 9.37017C289.235 9.70084 289.384 10.1328 289.395 10.6662C289.395 11.1462 289.262 11.5782 288.995 11.9622C288.728 12.3462 288.35 12.6502 287.859 12.8742C287.379 13.0875 286.824 13.1942 286.195 13.1942Z" fill="white" fill-opacity="0.9"/>
<path d="M299.226 4.28217V13.0502H297.77V11.7542C297.493 12.2022 297.104 12.5542 296.602 12.8102C296.112 13.0555 295.568 13.1782 294.97 13.1782C294.288 13.1782 293.674 13.0395 293.13 12.7622C292.586 12.4742 292.154 12.0475 291.834 11.4822C291.525 10.9168 291.37 10.2288 291.37 9.41817V4.28217H292.81V9.22617C292.81 10.0902 293.029 10.7568 293.466 11.2262C293.904 11.6848 294.501 11.9142 295.258 11.9142C296.037 11.9142 296.65 11.6742 297.098 11.1942C297.546 10.7142 297.77 10.0155 297.77 9.09817V4.28217H299.226Z" fill="white" fill-opacity="0.9"/>
<path d="M312.229 4.12217C312.911 4.12217 313.519 4.26617 314.053 4.55417C314.586 4.83151 315.007 5.25284 315.317 5.81817C315.626 6.38351 315.781 7.07151 315.781 7.88217V13.0502H314.341V8.09017C314.341 7.21551 314.122 6.54884 313.685 6.09017C313.258 5.62084 312.677 5.38617 311.941 5.38617C311.183 5.38617 310.581 5.63151 310.133 6.12217C309.685 6.60217 309.461 7.30084 309.461 8.21817V13.0502H308.021V8.09017C308.021 7.21551 307.802 6.54884 307.365 6.09017C306.938 5.62084 306.357 5.38617 305.621 5.38617C304.863 5.38617 304.261 5.63151 303.813 6.12217C303.365 6.60217 303.141 7.30084 303.141 8.21817V13.0502H301.685V4.28217H303.141V5.54617C303.429 5.08751 303.813 4.73551 304.293 4.49017C304.783 4.24484 305.322 4.12217 305.909 4.12217C306.645 4.12217 307.295 4.28751 307.861 4.61817C308.426 4.94884 308.847 5.43417 309.125 6.07417C309.37 5.45551 309.775 4.97551 310.341 4.63417C310.906 4.29284 311.535 4.12217 312.229 4.12217Z" fill="white" fill-opacity="0.9"/>
<path d="M323.187 2.85817C322.909 2.85817 322.675 2.76217 322.483 2.57017C322.291 2.37817 322.195 2.14351 322.195 1.86617C322.195 1.58884 322.291 1.35417 322.483 1.16217C322.675 0.970172 322.909 0.874172 323.187 0.874172C323.453 0.874172 323.677 0.970172 323.859 1.16217C324.051 1.35417 324.147 1.58884 324.147 1.86617C324.147 2.14351 324.051 2.37817 323.859 2.57017C323.677 2.76217 323.453 2.85817 323.187 2.85817ZM323.891 4.28217V13.0502H322.435V4.28217H323.891Z" fill="white" fill-opacity="0.9"/>
<path d="M329.476 13.1942C328.804 13.1942 328.201 13.0822 327.668 12.8582C327.135 12.6235 326.713 12.3035 326.404 11.8982C326.095 11.4822 325.924 11.0075 325.892 10.4742H327.396C327.439 10.9115 327.641 11.2688 328.004 11.5462C328.377 11.8235 328.863 11.9622 329.46 11.9622C330.015 11.9622 330.452 11.8395 330.772 11.5942C331.092 11.3488 331.252 11.0395 331.252 10.6662C331.252 10.2822 331.081 9.99951 330.74 9.81817C330.399 9.62617 329.871 9.43951 329.156 9.25817C328.505 9.08751 327.972 8.91684 327.556 8.74617C327.151 8.56484 326.799 8.30351 326.5 7.96217C326.212 7.61017 326.068 7.15151 326.068 6.58617C326.068 6.13817 326.201 5.72751 326.468 5.35417C326.735 4.98084 327.113 4.68751 327.604 4.47417C328.095 4.25017 328.655 4.13817 329.284 4.13817C330.255 4.13817 331.039 4.38351 331.636 4.87417C332.233 5.36484 332.553 6.03684 332.596 6.89017H331.14C331.108 6.43151 330.921 6.06351 330.58 5.78617C330.249 5.50884 329.801 5.37017 329.236 5.37017C328.713 5.37017 328.297 5.48217 327.988 5.70617C327.679 5.93017 327.524 6.22351 327.524 6.58617C327.524 6.87417 327.615 7.11417 327.796 7.30617C327.988 7.48751 328.223 7.63684 328.5 7.75417C328.788 7.86084 329.183 7.98351 329.684 8.12217C330.313 8.29284 330.825 8.46351 331.22 8.63417C331.615 8.79417 331.951 9.03951 332.228 9.37017C332.516 9.70084 332.665 10.1328 332.676 10.6662C332.676 11.1462 332.543 11.5782 332.276 11.9622C332.009 12.3462 331.631 12.6502 331.14 12.8742C330.66 13.0875 330.105 13.1942 329.476 13.1942Z" fill="white" fill-opacity="0.9"/>
<path d="M343.269 4.12217C344.336 4.12217 345.2 4.44751 345.861 5.09817C346.522 5.73817 346.853 6.66617 346.853 7.88217V13.0502H345.413V8.09017C345.413 7.21551 345.194 6.54884 344.757 6.09017C344.32 5.62084 343.722 5.38617 342.965 5.38617C342.197 5.38617 341.584 5.62617 341.125 6.10617C340.677 6.58617 340.453 7.28484 340.453 8.20217V13.0502H338.997V4.28217H340.453V5.53017C340.741 5.08217 341.13 4.73551 341.621 4.49017C342.122 4.24484 342.672 4.12217 343.269 4.12217Z" fill="white" fill-opacity="0.9"/>
<path d="M353.056 13.1942C352.234 13.1942 351.488 13.0075 350.816 12.6342C350.154 12.2608 349.632 11.7328 349.247 11.0502C348.874 10.3568 348.688 9.55684 348.688 8.65017C348.688 7.75417 348.88 6.96484 349.264 6.28217C349.658 5.58884 350.192 5.06084 350.864 4.69817C351.536 4.32484 352.288 4.13817 353.12 4.13817C353.952 4.13817 354.704 4.32484 355.376 4.69817C356.048 5.06084 356.576 5.58351 356.96 6.26617C357.354 6.94884 357.552 7.74351 357.552 8.65017C357.552 9.55684 357.349 10.3568 356.944 11.0502C356.549 11.7328 356.01 12.2608 355.328 12.6342C354.645 13.0075 353.888 13.1942 353.056 13.1942ZM353.056 11.9142C353.578 11.9142 354.069 11.7915 354.528 11.5462C354.986 11.3008 355.354 10.9328 355.632 10.4422C355.919 9.95151 356.064 9.35417 356.064 8.65017C356.064 7.94617 355.925 7.34884 355.648 6.85817C355.37 6.36751 355.008 6.00484 354.56 5.77017C354.112 5.52484 353.626 5.40217 353.104 5.40217C352.57 5.40217 352.079 5.52484 351.632 5.77017C351.194 6.00484 350.842 6.36751 350.576 6.85817C350.309 7.34884 350.176 7.94617 350.176 8.65017C350.176 9.36484 350.303 9.96751 350.56 10.4582C350.826 10.9488 351.178 11.3168 351.616 11.5622C352.053 11.7968 352.533 11.9142 353.056 11.9142Z" fill="white" fill-opacity="0.9"/>
<path d="M361.242 5.48217V10.6502C361.242 11.0768 361.333 11.3808 361.514 11.5622C361.695 11.7328 362.01 11.8182 362.458 11.8182H363.53V13.0502H362.218C361.407 13.0502 360.799 12.8635 360.394 12.4902C359.989 12.1168 359.786 11.5035 359.786 10.6502V5.48217H358.65V4.28217H359.786V2.07417H361.242V4.28217H363.53V5.48217H361.242Z" fill="white" fill-opacity="0.9"/>
<path d="M372.664 13.1942C371.992 13.1942 371.389 13.0822 370.856 12.8582C370.322 12.6235 369.901 12.3035 369.592 11.8982C369.282 11.4822 369.112 11.0075 369.08 10.4742H370.584C370.626 10.9115 370.829 11.2688 371.192 11.5462C371.565 11.8235 372.05 11.9622 372.648 11.9622C373.202 11.9622 373.64 11.8395 373.96 11.5942C374.28 11.3488 374.44 11.0395 374.44 10.6662C374.44 10.2822 374.269 9.99951 373.928 9.81817C373.586 9.62617 373.058 9.43951 372.344 9.25817C371.693 9.08751 371.16 8.91684 370.744 8.74617C370.338 8.56484 369.986 8.30351 369.688 7.96217C369.4 7.61017 369.256 7.15151 369.256 6.58617C369.256 6.13817 369.389 5.72751 369.656 5.35417C369.922 4.98084 370.301 4.68751 370.792 4.47417C371.282 4.25017 371.842 4.13817 372.472 4.13817C373.442 4.13817 374.226 4.38351 374.824 4.87417C375.421 5.36484 375.741 6.03684 375.784 6.89017H374.328C374.296 6.43151 374.109 6.06351 373.768 5.78617C373.437 5.50884 372.989 5.37017 372.424 5.37017C371.901 5.37017 371.485 5.48217 371.176 5.70617C370.866 5.93017 370.712 6.22351 370.712 6.58617C370.712 6.87417 370.802 7.11417 370.984 7.30617C371.176 7.48751 371.41 7.63684 371.688 7.75417C371.976 7.86084 372.37 7.98351 372.872 8.12217C373.501 8.29284 374.013 8.46351 374.408 8.63417C374.802 8.79417 375.138 9.03951 375.416 9.37017C375.704 9.70084 375.853 10.1328 375.864 10.6662C375.864 11.1462 375.73 11.5782 375.464 11.9622C375.197 12.3462 374.818 12.6502 374.328 12.8742C373.848 13.0875 373.293 13.1942 372.664 13.1942Z" fill="white" fill-opacity="0.9"/>
<path d="M378.671 2.85817C378.394 2.85817 378.159 2.76217 377.967 2.57017C377.775 2.37817 377.679 2.14351 377.679 1.86617C377.679 1.58884 377.775 1.35417 377.967 1.16217C378.159 0.970172 378.394 0.874172 378.671 0.874172C378.938 0.874172 379.162 0.970172 379.343 1.16217C379.535 1.35417 379.631 1.58884 379.631 1.86617C379.631 2.14351 379.535 2.37817 379.343 2.57017C379.162 2.76217 378.938 2.85817 378.671 2.85817ZM379.375 4.28217V13.0502H377.919V4.28217H379.375Z" fill="white" fill-opacity="0.9"/>
<path d="M392.401 4.12217C393.083 4.12217 393.691 4.26617 394.225 4.55417C394.758 4.83151 395.179 5.25284 395.489 5.81817C395.798 6.38351 395.953 7.07151 395.953 7.88217V13.0502H394.513V8.09017C394.513 7.21551 394.294 6.54884 393.857 6.09017C393.43 5.62084 392.849 5.38617 392.113 5.38617C391.355 5.38617 390.753 5.63151 390.305 6.12217C389.857 6.60217 389.633 7.30084 389.633 8.21817V13.0502H388.193V8.09017C388.193 7.21551 387.974 6.54884 387.536 6.09017C387.11 5.62084 386.529 5.38617 385.793 5.38617C385.035 5.38617 384.432 5.63151 383.984 6.12217C383.536 6.60217 383.312 7.30084 383.312 8.21817V13.0502H381.857V4.28217H383.312V5.54617C383.6 5.08751 383.984 4.73551 384.465 4.49017C384.955 4.24484 385.494 4.12217 386.081 4.12217C386.816 4.12217 387.467 4.28751 388.033 4.61817C388.598 4.94884 389.019 5.43417 389.297 6.07417C389.542 5.45551 389.947 4.97551 390.513 4.63417C391.078 4.29284 391.707 4.12217 392.401 4.12217Z" fill="white" fill-opacity="0.9"/>
<path d="M399.797 5.89817C400.085 5.39684 400.512 4.98084 401.077 4.65017C401.653 4.30884 402.32 4.13817 403.077 4.13817C403.856 4.13817 404.56 4.32484 405.189 4.69817C405.829 5.07151 406.33 5.59951 406.693 6.28217C407.056 6.95417 407.237 7.73817 407.237 8.63417C407.237 9.51951 407.056 10.3088 406.693 11.0022C406.33 11.6955 405.829 12.2342 405.189 12.6182C404.56 13.0022 403.856 13.1942 403.077 13.1942C402.33 13.1942 401.669 13.0288 401.093 12.6982C400.528 12.3568 400.096 11.9355 399.797 11.4342V17.2102H398.341V4.28217H399.797V5.89817ZM405.749 8.63417C405.749 7.97284 405.616 7.39684 405.349 6.90617C405.082 6.41551 404.72 6.04217 404.261 5.78617C403.813 5.53017 403.317 5.40217 402.773 5.40217C402.24 5.40217 401.744 5.53551 401.285 5.80217C400.837 6.05817 400.474 6.43684 400.197 6.93817C399.93 7.42884 399.797 7.99951 399.797 8.65017C399.797 9.31151 399.93 9.89284 400.197 10.3942C400.474 10.8848 400.837 11.2635 401.285 11.5302C401.744 11.7862 402.24 11.9142 402.773 11.9142C403.317 11.9142 403.813 11.7862 404.261 11.5302C404.72 11.2635 405.082 10.8848 405.349 10.3942C405.616 9.89284 405.749 9.30617 405.749 8.63417Z" fill="white" fill-opacity="0.9"/>
<path d="M410.609 1.21017V13.0502H409.153V1.21017H410.609Z" fill="white" fill-opacity="0.9"/>
<path d="M420.643 4.28217L415.363 17.1782H413.859L415.587 12.9542L412.051 4.28217H413.667L416.419 11.3862L419.139 4.28217H420.643Z" fill="white" fill-opacity="0.9"/>
<path d="M2.6875 31.7062C2.9435 31.2048 3.30617 30.8155 3.7755 30.5382C4.2555 30.2608 4.83683 30.1222 5.5195 30.1222V31.6262H5.1355C3.5035 31.6262 2.6875 32.5115 2.6875 34.2822V39.0502H1.2315V30.2822H2.6875V31.7062Z" fill="white" fill-opacity="0.9"/>
<path d="M6.65625 34.6342C6.65625 33.7382 6.83758 32.9542 7.20025 32.2822C7.56292 31.5995 8.05892 31.0715 8.68825 30.6982C9.32825 30.3248 10.0376 30.1382 10.8162 30.1382C11.5843 30.1382 12.2509 30.3035 12.8163 30.6342C13.3816 30.9648 13.8029 31.3808 14.0803 31.8822V30.2822H15.5523V39.0502H14.0803V37.4182C13.7923 37.9302 13.3603 38.3568 12.7843 38.6982C12.2189 39.0288 11.5576 39.1942 10.8003 39.1942C10.0216 39.1942 9.31758 39.0022 8.68825 38.6182C8.05892 38.2342 7.56292 37.6955 7.20025 37.0022C6.83758 36.3088 6.65625 35.5195 6.65625 34.6342ZM14.0803 34.6502C14.0803 33.9888 13.9469 33.4128 13.6803 32.9222C13.4136 32.4315 13.0509 32.0582 12.5923 31.8022C12.1443 31.5355 11.6482 31.4022 11.1042 31.4022C10.5603 31.4022 10.0643 31.5302 9.61625 31.7862C9.16825 32.0422 8.81092 32.4155 8.54425 32.9062C8.27758 33.3968 8.14425 33.9728 8.14425 34.6342C8.14425 35.3062 8.27758 35.8928 8.54425 36.3942C8.81092 36.8848 9.16825 37.2635 9.61625 37.5302C10.0643 37.7862 10.5603 37.9142 11.1042 37.9142C11.6482 37.9142 12.1443 37.7862 12.5923 37.5302C13.0509 37.2635 13.4136 36.8848 13.6803 36.3942C13.9469 35.8928 14.0803 35.3115 14.0803 34.6502Z" fill="white" fill-opacity="0.9"/>
<path d="M22.2847 30.1222C23.3514 30.1222 24.2154 30.4475 24.8768 31.0982C25.5381 31.7382 25.8688 32.6662 25.8688 33.8822V39.0502H24.4288V34.0902C24.4288 33.2155 24.2101 32.5488 23.7728 32.0902C23.3354 31.6208 22.7381 31.3862 21.9808 31.3862C21.2128 31.3862 20.5994 31.6262 20.1408 32.1062C19.6928 32.5862 19.4688 33.2848 19.4688 34.2022V39.0502H18.0128V30.2822H19.4688V31.5302C19.7568 31.0822 20.1461 30.7355 20.6368 30.4902C21.1381 30.2448 21.6874 30.1222 22.2847 30.1222Z" fill="white" fill-opacity="0.9"/>
<path d="M27.7031 34.6342C27.7031 33.7382 27.8845 32.9542 28.2471 32.2822C28.6098 31.5995 29.1058 31.0715 29.7351 30.6982C30.3751 30.3248 31.0898 30.1382 31.8791 30.1382C32.5618 30.1382 33.1965 30.2982 33.7831 30.6182C34.3698 30.9275 34.8178 31.3382 35.1271 31.8502V27.2102H36.5991V39.0502H35.1271V37.4022C34.8391 37.9248 34.4125 38.3568 33.8471 38.6982C33.2818 39.0288 32.6205 39.1942 31.8631 39.1942C31.0845 39.1942 30.3751 39.0022 29.7351 38.6182C29.1058 38.2342 28.6098 37.6955 28.2471 37.0022C27.8845 36.3088 27.7031 35.5195 27.7031 34.6342ZM35.1271 34.6502C35.1271 33.9888 34.9938 33.4128 34.7271 32.9222C34.4605 32.4315 34.0978 32.0582 33.6391 31.8022C33.1911 31.5355 32.6951 31.4022 32.1511 31.4022C31.6071 31.4022 31.1111 31.5302 30.6631 31.7862C30.2151 32.0422 29.8578 32.4155 29.5911 32.9062C29.3245 33.3968 29.1911 33.9728 29.1911 34.6342C29.1911 35.3062 29.3245 35.8928 29.5911 36.3942C29.8578 36.8848 30.2151 37.2635 30.6631 37.5302C31.1111 37.7862 31.6071 37.9142 32.1511 37.9142C32.6951 37.9142 33.1911 37.7862 33.6391 37.5302C34.0978 37.2635 34.4605 36.8848 34.7271 36.3942C34.9938 35.8928 35.1271 35.3115 35.1271 34.6502Z" fill="white" fill-opacity="0.9"/>
<path d="M42.8836 39.1942C42.0623 39.1942 41.3156 39.0075 40.6436 38.6342C39.9823 38.2608 39.4596 37.7328 39.0756 37.0502C38.7023 36.3568 38.5156 35.5568 38.5156 34.6502C38.5156 33.7542 38.7076 32.9648 39.0916 32.2822C39.4863 31.5888 40.0196 31.0608 40.6916 30.6982C41.3636 30.3248 42.1156 30.1382 42.9476 30.1382C43.7796 30.1382 44.5316 30.3248 45.2036 30.6982C45.8756 31.0608 46.4036 31.5835 46.7876 32.2662C47.1823 32.9488 47.3796 33.7435 47.3796 34.6502C47.3796 35.5568 47.177 36.3568 46.7716 37.0502C46.377 37.7328 45.8383 38.2608 45.1556 38.6342C44.473 39.0075 43.7156 39.1942 42.8836 39.1942ZM42.8836 37.9142C43.4063 37.9142 43.897 37.7915 44.3556 37.5462C44.8143 37.3008 45.1823 36.9328 45.4596 36.4422C45.7476 35.9515 45.8916 35.3542 45.8916 34.6502C45.8916 33.9462 45.753 33.3488 45.4756 32.8582C45.1983 32.3675 44.8356 32.0048 44.3876 31.7702C43.9396 31.5248 43.4543 31.4022 42.9316 31.4022C42.3983 31.4022 41.9076 31.5248 41.4596 31.7702C41.0223 32.0048 40.6703 32.3675 40.4036 32.8582C40.137 33.3488 40.0036 33.9462 40.0036 34.6502C40.0036 35.3648 40.1316 35.9675 40.3876 36.4582C40.6543 36.9488 41.0063 37.3168 41.4436 37.5622C41.881 37.7968 42.361 37.9142 42.8836 37.9142Z" fill="white" fill-opacity="0.9"/>
<path d="M59.838 30.1222C60.5207 30.1222 61.1287 30.2662 61.662 30.5542C62.1953 30.8315 62.6167 31.2528 62.926 31.8182C63.2353 32.3835 63.39 33.0715 63.39 33.8822V39.0502H61.95V34.0902C61.95 33.2155 61.7313 32.5488 61.294 32.0902C60.8673 31.6208 60.286 31.3862 59.55 31.3862C58.7927 31.3862 58.19 31.6315 57.742 32.1222C57.294 32.6022 57.07 33.3008 57.07 34.2182V39.0502H55.63V34.0902C55.63 33.2155 55.4113 32.5488 54.974 32.0902C54.5473 31.6208 53.966 31.3862 53.23 31.3862C52.4727 31.3862 51.87 31.6315 51.422 32.1222C50.974 32.6022 50.75 33.3008 50.75 34.2182V39.0502H49.294V30.2822H50.75V31.5462C51.038 31.0875 51.422 30.7355 51.902 30.4902C52.3927 30.2448 52.9313 30.1222 53.518 30.1222C54.254 30.1222 54.9047 30.2875 55.47 30.6182C56.0353 30.9488 56.4567 31.4342 56.734 32.0742C56.9793 31.4555 57.3847 30.9755 57.95 30.6342C58.5153 30.2928 59.1447 30.1222 59.838 30.1222Z" fill="white" fill-opacity="0.9"/>
<path d="M71.82 31.4822V36.6502C71.82 37.0768 71.9107 37.3808 72.092 37.5622C72.2733 37.7328 72.588 37.8182 73.036 37.8182H74.108V39.0502H72.796C71.9853 39.0502 71.3773 38.8635 70.972 38.4902C70.5667 38.1168 70.364 37.5035 70.364 36.6502V31.4822H69.228V30.2822H70.364V28.0742H71.82V30.2822H74.108V31.4822H71.82Z" fill="white" fill-opacity="0.9"/>
<path d="M83.8721 34.3302C83.8721 34.6075 83.8561 34.9008 83.8241 35.2102H76.8161C76.8695 36.0742 77.1628 36.7515 77.6961 37.2422C78.2401 37.7222 78.8961 37.9622 79.6641 37.9622C80.2935 37.9622 80.8161 37.8182 81.2321 37.5302C81.6588 37.2315 81.9575 36.8368 82.1281 36.3462H83.6961C83.4615 37.1888 82.9921 37.8768 82.2881 38.4102C81.5841 38.9328 80.7095 39.1942 79.6641 39.1942C78.8321 39.1942 78.0854 39.0075 77.4241 38.6342C76.7735 38.2608 76.2615 37.7328 75.8881 37.0502C75.5148 36.3568 75.3281 35.5568 75.3281 34.6502C75.3281 33.7435 75.5095 32.9488 75.8721 32.2662C76.2348 31.5835 76.7415 31.0608 77.3921 30.6982C78.0535 30.3248 78.8108 30.1382 79.6641 30.1382C80.4961 30.1382 81.2321 30.3195 81.8721 30.6822C82.5121 31.0448 83.0028 31.5462 83.3441 32.1862C83.6961 32.8155 83.8721 33.5302 83.8721 34.3302ZM82.3681 34.0262C82.3681 33.4715 82.2455 32.9968 82.0001 32.6022C81.7548 32.1968 81.4188 31.8928 80.9921 31.6902C80.5761 31.4768 80.1121 31.3702 79.6001 31.3702C78.8641 31.3702 78.2348 31.6048 77.7121 32.0742C77.2001 32.5435 76.9068 33.1942 76.8321 34.0262H82.3681Z" fill="white" fill-opacity="0.9"/>
<path d="M90.37 39.0502L88.29 35.7862L86.29 39.0502H84.77L87.602 34.6982L84.77 30.2822H86.418L88.498 33.5302L90.482 30.2822H92.002L89.186 34.6182L92.018 39.0502H90.37Z" fill="white" fill-opacity="0.9"/>
<path d="M95.2262 31.4822V36.6502C95.2262 37.0768 95.3169 37.3808 95.4982 37.5622C95.6796 37.7328 95.9942 37.8182 96.4422 37.8182H97.5142V39.0502H96.2022C95.3916 39.0502 94.7836 38.8635 94.3783 38.4902C93.9729 38.1168 93.7702 37.5035 93.7702 36.6502V31.4822H92.6342V30.2822H93.7702V28.0742H95.2262V30.2822H97.5142V31.4822H95.2262Z" fill="white" fill-opacity="0.9"/>
<path d="M99.7424 39.1462C99.465 39.1462 99.2304 39.0502 99.0384 38.8582C98.8464 38.6662 98.7504 38.4315 98.7504 38.1542C98.7504 37.8768 98.8464 37.6422 99.0384 37.4502C99.2304 37.2582 99.465 37.1622 99.7424 37.1622C100.009 37.1622 100.233 37.2582 100.414 37.4502C100.606 37.6422 100.702 37.8768 100.702 38.1542C100.702 38.4315 100.606 38.6662 100.414 38.8582C100.233 39.0502 100.009 39.1462 99.7424 39.1462Z" fill="white" fill-opacity="0.9"/>
<path d="M108.359 27.8982V39.0502H106.903V27.8982H108.359Z" fill="white" fill-opacity="0.9"/>
<path d="M112.617 31.4822V36.6502C112.617 37.0768 112.708 37.3808 112.889 37.5622C113.07 37.7328 113.385 37.8182 113.833 37.8182H114.905V39.0502H113.593C112.782 39.0502 112.174 38.8635 111.769 38.4902C111.364 38.1168 111.161 37.5035 111.161 36.6502V31.4822H110.025V30.2822H111.161V28.0742H112.617V30.2822H114.905V31.4822H112.617Z" fill="white" fill-opacity="0.9"/>
<path d="M125.287 30.1222C125.948 30.1222 126.545 30.2662 127.079 30.5542C127.612 30.8315 128.028 31.2528 128.327 31.8182C128.636 32.3835 128.791 33.0715 128.791 33.8822V39.0502H127.351V34.0902C127.351 33.2155 127.132 32.5488 126.695 32.0902C126.257 31.6208 125.66 31.3862 124.903 31.3862C124.135 31.3862 123.521 31.6262 123.063 32.1062C122.615 32.5862 122.391 33.2848 122.391 34.2022V39.0502H120.935V27.2102H122.391V31.5302C122.679 31.0822 123.073 30.7355 123.575 30.4902C124.087 30.2448 124.657 30.1222 125.287 30.1222Z" fill="white" fill-opacity="0.9"/>
<path d="M130.625 34.6342C130.625 33.7382 130.806 32.9542 131.169 32.2822C131.532 31.5995 132.028 31.0715 132.657 30.6982C133.297 30.3248 134.006 30.1382 134.785 30.1382C135.553 30.1382 136.22 30.3035 136.785 30.6342C137.35 30.9648 137.772 31.3808 138.049 31.8822V30.2822H139.521V39.0502H138.049V37.4182C137.761 37.9302 137.329 38.3568 136.753 38.6982C136.188 39.0288 135.526 39.1942 134.769 39.1942C133.99 39.1942 133.286 39.0022 132.657 38.6182C132.028 38.2342 131.532 37.6955 131.169 37.0022C130.806 36.3088 130.625 35.5195 130.625 34.6342ZM138.049 34.6502C138.049 33.9888 137.916 33.4128 137.649 32.9222C137.382 32.4315 137.02 32.0582 136.561 31.8022C136.113 31.5355 135.617 31.4022 135.073 31.4022C134.529 31.4022 134.033 31.5302 133.585 31.7862C133.137 32.0422 132.78 32.4155 132.513 32.9062C132.246 33.3968 132.113 33.9728 132.113 34.6342C132.113 35.3062 132.246 35.8928 132.513 36.3942C132.78 36.8848 133.137 37.2635 133.585 37.5302C134.033 37.7862 134.529 37.9142 135.073 37.9142C135.617 37.9142 136.113 37.7862 136.561 37.5302C137.02 37.2635 137.382 36.8848 137.649 36.3942C137.916 35.8928 138.049 35.3115 138.049 34.6502Z" fill="white" fill-opacity="0.9"/>
<path d="M145.085 39.1942C144.413 39.1942 143.811 39.0822 143.277 38.8582C142.744 38.6235 142.323 38.3035 142.014 37.8982C141.704 37.4822 141.533 37.0075 141.501 36.4742H143.005C143.048 36.9115 143.251 37.2688 143.613 37.5462C143.987 37.8235 144.472 37.9622 145.07 37.9622C145.624 37.9622 146.061 37.8395 146.382 37.5942C146.702 37.3488 146.861 37.0395 146.861 36.6662C146.861 36.2822 146.691 35.9995 146.35 35.8182C146.008 35.6262 145.48 35.4395 144.766 35.2582C144.115 35.0875 143.581 34.9168 143.165 34.7462C142.76 34.5648 142.408 34.3035 142.109 33.9622C141.822 33.6102 141.677 33.1515 141.677 32.5862C141.677 32.1382 141.811 31.7275 142.077 31.3542C142.344 30.9808 142.723 30.6875 143.214 30.4742C143.704 30.2502 144.264 30.1382 144.893 30.1382C145.864 30.1382 146.648 30.3835 147.245 30.8742C147.843 31.3648 148.163 32.0368 148.205 32.8902H146.749C146.717 32.4315 146.531 32.0635 146.189 31.7862C145.859 31.5088 145.411 31.3702 144.845 31.3702C144.323 31.3702 143.907 31.4822 143.598 31.7062C143.288 31.9302 143.133 32.2235 143.133 32.5862C143.133 32.8742 143.224 33.1142 143.406 33.3062C143.598 33.4875 143.832 33.6368 144.109 33.7542C144.397 33.8608 144.792 33.9835 145.294 34.1222C145.923 34.2928 146.435 34.4635 146.829 34.6342C147.224 34.7942 147.56 35.0395 147.837 35.3702C148.125 35.7008 148.275 36.1328 148.285 36.6662C148.285 37.1462 148.152 37.5782 147.885 37.9622C147.619 38.3462 147.24 38.6502 146.749 38.8742C146.27 39.0875 145.715 39.1942 145.085 39.1942Z" fill="white" fill-opacity="0.9"/>
<path d="M156.062 31.7062C156.318 31.2048 156.681 30.8155 157.15 30.5382C157.63 30.2608 158.212 30.1222 158.895 30.1222V31.6262H158.51C156.878 31.6262 156.062 32.5115 156.062 34.2822V39.0502H154.606V30.2822H156.062V31.7062Z" fill="white" fill-opacity="0.9"/>
<path d="M164.399 39.1942C163.578 39.1942 162.831 39.0075 162.159 38.6342C161.498 38.2608 160.975 37.7328 160.591 37.0502C160.218 36.3568 160.031 35.5568 160.031 34.6502C160.031 33.7542 160.223 32.9648 160.607 32.2822C161.002 31.5888 161.535 31.0608 162.207 30.6982C162.879 30.3248 163.631 30.1382 164.463 30.1382C165.295 30.1382 166.047 30.3248 166.719 30.6982C167.391 31.0608 167.919 31.5835 168.303 32.2662C168.698 32.9488 168.895 33.7435 168.895 34.6502C168.895 35.5568 168.693 36.3568 168.287 37.0502C167.893 37.7328 167.354 38.2608 166.671 38.6342C165.989 39.0075 165.231 39.1942 164.399 39.1942ZM164.399 37.9142C164.922 37.9142 165.413 37.7915 165.871 37.5462C166.33 37.3008 166.698 36.9328 166.975 36.4422C167.263 35.9515 167.407 35.3542 167.407 34.6502C167.407 33.9462 167.269 33.3488 166.991 32.8582C166.714 32.3675 166.351 32.0048 165.903 31.7702C165.455 31.5248 164.97 31.4022 164.447 31.4022C163.914 31.4022 163.423 31.5248 162.975 31.7702C162.538 32.0048 162.186 32.3675 161.919 32.8582C161.653 33.3488 161.519 33.9462 161.519 34.6502C161.519 35.3648 161.647 35.9675 161.903 36.4582C162.17 36.9488 162.522 37.3168 162.959 37.5622C163.397 37.7968 163.877 37.9142 164.399 37.9142Z" fill="white" fill-opacity="0.9"/>
<path d="M174.634 39.1942C173.812 39.1942 173.066 39.0075 172.394 38.6342C171.732 38.2608 171.21 37.7328 170.826 37.0502C170.452 36.3568 170.266 35.5568 170.266 34.6502C170.266 33.7542 170.458 32.9648 170.842 32.2822C171.236 31.5888 171.77 31.0608 172.442 30.6982C173.114 30.3248 173.866 30.1382 174.698 30.1382C175.53 30.1382 176.282 30.3248 176.954 30.6982C177.626 31.0608 178.154 31.5835 178.538 32.2662C178.932 32.9488 179.13 33.7435 179.13 34.6502C179.13 35.5568 178.927 36.3568 178.522 37.0502C178.127 37.7328 177.588 38.2608 176.906 38.6342C176.223 39.0075 175.466 39.1942 174.634 39.1942ZM174.634 37.9142C175.156 37.9142 175.647 37.7915 176.106 37.5462C176.564 37.3008 176.932 36.9328 177.21 36.4422C177.498 35.9515 177.642 35.3542 177.642 34.6502C177.642 33.9462 177.503 33.3488 177.226 32.8582C176.948 32.3675 176.586 32.0048 176.138 31.7702C175.69 31.5248 175.204 31.4022 174.682 31.4022C174.148 31.4022 173.658 31.5248 173.21 31.7702C172.772 32.0048 172.42 32.3675 172.154 32.8582C171.887 33.3488 171.754 33.9462 171.754 34.6502C171.754 35.3648 171.882 35.9675 172.138 36.4582C172.404 36.9488 172.756 37.3168 173.194 37.5622C173.631 37.7968 174.111 37.9142 174.634 37.9142Z" fill="white" fill-opacity="0.9"/>
<path d="M182.82 31.4822V36.6502C182.82 37.0768 182.911 37.3808 183.092 37.5622C183.273 37.7328 183.588 37.8182 184.036 37.8182H185.108V39.0502H183.796C182.985 39.0502 182.377 38.8635 181.972 38.4902C181.567 38.1168 181.364 37.5035 181.364 36.6502V31.4822H180.228V30.2822H181.364V28.0742H182.82V30.2822H185.108V31.4822H182.82Z" fill="white" fill-opacity="0.9"/>
<path d="M189.976 39.1942C189.304 39.1942 188.701 39.0822 188.168 38.8582C187.635 38.6235 187.213 38.3035 186.904 37.8982C186.595 37.4822 186.424 37.0075 186.392 36.4742H187.896C187.939 36.9115 188.141 37.2688 188.504 37.5462C188.877 37.8235 189.363 37.9622 189.96 37.9622C190.515 37.9622 190.952 37.8395 191.272 37.5942C191.592 37.3488 191.752 37.0395 191.752 36.6662C191.752 36.2822 191.581 35.9995 191.24 35.8182C190.899 35.6262 190.371 35.4395 189.656 35.2582C189.005 35.0875 188.472 34.9168 188.056 34.7462C187.651 34.5648 187.299 34.3035 187 33.9622C186.712 33.6102 186.568 33.1515 186.568 32.5862C186.568 32.1382 186.701 31.7275 186.968 31.3542C187.235 30.9808 187.613 30.6875 188.104 30.4742C188.595 30.2502 189.155 30.1382 189.784 30.1382C190.755 30.1382 191.539 30.3835 192.136 30.8742C192.733 31.3648 193.053 32.0368 193.096 32.8902H191.64C191.608 32.4315 191.421 32.0635 191.08 31.7862C190.749 31.5088 190.301 31.3702 189.736 31.3702C189.213 31.3702 188.797 31.4822 188.488 31.7062C188.179 31.9302 188.024 32.2235 188.024 32.5862C188.024 32.8742 188.115 33.1142 188.296 33.3062C188.488 33.4875 188.723 33.6368 189 33.7542C189.288 33.8608 189.683 33.9835 190.184 34.1222C190.813 34.2928 191.325 34.4635 191.72 34.6342C192.115 34.7942 192.451 35.0395 192.728 35.3702C193.016 35.7008 193.165 36.1328 193.176 36.6662C193.176 37.1462 193.043 37.5782 192.776 37.9622C192.509 38.3462 192.131 38.6502 191.64 38.8742C191.16 39.0875 190.605 39.1942 189.976 39.1942Z" fill="white" fill-opacity="0.9"/>
</svg>
