<svg width="24" height="17" viewBox="0 0 24 17" fill="none" xmlns="http://www.w3.org/2000/svg">
<path fill-rule="evenodd" clip-rule="evenodd" d="M-8.74228e-08 8.04883C-3.91405e-08 7.49654 0.447715 7.04883 1 7.04883L23 7.04883C23.5523 7.04883 24 7.49655 24 8.04883C24 8.60111 23.5523 9.04883 23 9.04883L1 9.04883C0.447715 9.04883 -1.35705e-07 8.60111 -8.74228e-08 8.04883Z" fill="#002547"/>
<path fill-rule="evenodd" clip-rule="evenodd" d="M15.2929 0.341721C15.6834 -0.048803 16.3166 -0.048803 16.7071 0.341721L23.7071 7.34172C24.0976 7.73225 24.0976 8.36541 23.7071 8.75593L16.7071 15.7559C16.3166 16.1465 15.6834 16.1465 15.2929 15.7559C14.9024 15.3654 14.9024 14.7322 15.2929 14.3417L21.5858 8.04883L15.2929 1.75593C14.9024 1.36541 14.9024 0.732246 15.2929 0.341721Z" fill="#002547"/>
</svg>
