<svg width="484" height="33" viewBox="0 0 484 33" fill="none" xmlns="http://www.w3.org/2000/svg">
<path d="M3.85822 21.1977H11.1432V24.0497H0.324219V2.50469H3.85822V21.1977Z" fill="white"/>
<path d="M21.5076 24.3287C19.8956 24.3287 18.4386 23.967 17.1366 23.2437C15.8346 22.4997 14.8116 21.4664 14.0676 20.1437C13.3236 18.8004 12.9516 17.2504 12.9516 15.4937C12.9516 13.7577 13.334 12.218 14.0986 10.8747C14.8633 9.53135 15.907 8.49802 17.2296 7.77469C18.5523 7.05135 20.03 6.68969 21.6626 6.68969C23.2953 6.68969 24.773 7.05135 26.0956 7.77469C27.4183 8.49802 28.462 9.53135 29.2266 10.8747C29.9913 12.218 30.3736 13.7577 30.3736 15.4937C30.3736 17.2297 29.981 18.7694 29.1956 20.1127C28.4103 21.456 27.3356 22.4997 25.9716 23.2437C24.6283 23.967 23.1403 24.3287 21.5076 24.3287ZM21.5076 21.2597C22.417 21.2597 23.2643 21.0427 24.0496 20.6087C24.8556 20.1747 25.5066 19.5237 26.0026 18.6557C26.4986 17.7877 26.7466 16.7337 26.7466 15.4937C26.7466 14.2537 26.509 13.21 26.0336 12.3627C25.5583 11.4947 24.928 10.8437 24.1426 10.4097C23.3573 9.97569 22.51 9.75869 21.6006 9.75869C20.6913 9.75869 19.844 9.97569 19.0586 10.4097C18.294 10.8437 17.6843 11.4947 17.2296 12.3627C16.775 13.21 16.5476 14.2537 16.5476 15.4937C16.5476 17.333 17.0126 18.759 17.9426 19.7717C18.8933 20.7637 20.0816 21.2597 21.5076 21.2597Z" fill="white"/>
<path d="M37.4012 9.44869C37.9179 8.58069 38.5999 7.90902 39.4472 7.43369C40.3152 6.93769 41.3382 6.68969 42.5162 6.68969V10.3477H41.6172C40.2325 10.3477 39.1785 10.699 38.4552 11.4017C37.7525 12.1044 37.4012 13.3237 37.4012 15.0597V24.0497H33.8672V6.96869H37.4012V9.44869Z" fill="white"/>
<path d="M61.4196 15.0907C61.4196 15.7314 61.3783 16.31 61.2957 16.8267H48.2446C48.348 18.1907 48.8543 19.286 49.7636 20.1127C50.673 20.9394 51.789 21.3527 53.1116 21.3527C55.013 21.3527 56.3563 20.557 57.1416 18.9657H60.9546C60.438 20.5364 59.4976 21.828 58.1336 22.8407C56.7903 23.8327 55.1163 24.3287 53.1116 24.3287C51.479 24.3287 50.0117 23.967 48.7096 23.2437C47.4283 22.4997 46.4156 21.4664 45.6716 20.1437C44.9483 18.8004 44.5866 17.2504 44.5866 15.4937C44.5866 13.737 44.938 12.1974 45.6406 10.8747C46.364 9.53135 47.3663 8.49802 48.6476 7.77469C49.9496 7.05135 51.4376 6.68969 53.1116 6.68969C54.7236 6.68969 56.16 7.04102 57.4207 7.74369C58.6813 8.44635 59.663 9.43835 60.3656 10.7197C61.0683 11.9804 61.4196 13.4374 61.4196 15.0907ZM57.7306 13.9747C57.71 12.6727 57.245 11.629 56.3356 10.8437C55.4263 10.0584 54.3 9.66569 52.9566 9.66569C51.7373 9.66569 50.6936 10.0584 49.8256 10.8437C48.9576 11.6084 48.441 12.652 48.2756 13.9747H57.7306Z" fill="white"/>
<path d="M85.5745 6.68969C86.9178 6.68969 88.1165 6.96869 89.1705 7.52669C90.2451 8.08469 91.0821 8.91135 91.6815 10.0067C92.3015 11.102 92.6115 12.4247 92.6115 13.9747V24.0497H89.1085V14.5017C89.1085 12.9724 88.7261 11.8047 87.9615 10.9987C87.1968 10.172 86.1531 9.75869 84.8305 9.75869C83.5078 9.75869 82.4538 10.172 81.6685 10.9987C80.9038 11.8047 80.5215 12.9724 80.5215 14.5017V24.0497H77.0185V14.5017C77.0185 12.9724 76.6361 11.8047 75.8715 10.9987C75.1068 10.172 74.0631 9.75869 72.7405 9.75869C71.4178 9.75869 70.3638 10.172 69.5785 10.9987C68.8138 11.8047 68.4315 12.9724 68.4315 14.5017V24.0497H64.8975V6.96869H68.4315V8.92169C69.0101 8.21902 69.7438 7.67135 70.6325 7.27869C71.5211 6.88602 72.4718 6.68969 73.4845 6.68969C74.8485 6.68969 76.0678 6.97902 77.1425 7.55769C78.2171 8.13635 79.0438 8.97335 79.6225 10.0687C80.1391 9.03535 80.9451 8.21902 82.0405 7.61969C83.1358 6.99969 84.3138 6.68969 85.5745 6.68969Z" fill="white"/>
<path d="M108.695 2.50469V24.0497H105.161V2.50469H108.695Z" fill="white"/>
<path d="M116.869 9.47969C117.468 8.69435 118.285 8.03302 119.318 7.49569C120.351 6.95835 121.519 6.68969 122.821 6.68969C124.309 6.68969 125.663 7.06169 126.882 7.80569C128.122 8.52902 129.093 9.55202 129.796 10.8747C130.499 12.1974 130.85 13.7164 130.85 15.4317C130.85 17.147 130.499 18.6867 129.796 20.0507C129.093 21.394 128.122 22.448 126.882 23.2127C125.663 23.9567 124.309 24.3287 122.821 24.3287C121.519 24.3287 120.362 24.0704 119.349 23.5537C118.336 23.0164 117.51 22.355 116.869 21.5697V32.1717H113.335V6.96869H116.869V9.47969ZM127.254 15.4317C127.254 14.2537 127.006 13.241 126.51 12.3937C126.035 11.5257 125.394 10.8747 124.588 10.4407C123.803 9.98602 122.955 9.75869 122.046 9.75869C121.157 9.75869 120.31 9.98602 119.504 10.4407C118.719 10.8954 118.078 11.5567 117.582 12.4247C117.107 13.2927 116.869 14.3157 116.869 15.4937C116.869 16.6717 117.107 17.705 117.582 18.5937C118.078 19.4617 118.719 20.123 119.504 20.5777C120.31 21.0324 121.157 21.2597 122.046 21.2597C122.955 21.2597 123.803 21.0324 124.588 20.5777C125.394 20.1024 126.035 19.4204 126.51 18.5317C127.006 17.643 127.254 16.6097 127.254 15.4317Z" fill="white"/>
<path d="M140.545 24.3287C139.201 24.3287 137.992 24.091 136.918 23.6157C135.864 23.1197 135.027 22.4584 134.407 21.6317C133.787 20.7844 133.456 19.844 133.415 18.8107H137.073C137.135 19.534 137.476 20.1437 138.096 20.6397C138.736 21.115 139.532 21.3527 140.483 21.3527C141.475 21.3527 142.239 21.1667 142.777 20.7947C143.335 20.402 143.614 19.906 143.614 19.3067C143.614 18.666 143.304 18.1907 142.684 17.8807C142.084 17.5707 141.123 17.2297 139.801 16.8577C138.519 16.5064 137.476 16.1654 136.67 15.8347C135.864 15.504 135.161 14.9977 134.562 14.3157C133.983 13.6337 133.694 12.7347 133.694 11.6187C133.694 10.7094 133.962 9.88269 134.5 9.13869C135.037 8.37402 135.802 7.77469 136.794 7.34069C137.806 6.90669 138.964 6.68969 140.266 6.68969C142.208 6.68969 143.769 7.18569 144.947 8.17769C146.145 9.14902 146.786 10.482 146.869 12.1767H143.335C143.273 11.412 142.963 10.8024 142.405 10.3477C141.847 9.89302 141.092 9.66569 140.142 9.66569C139.212 9.66569 138.499 9.84136 138.003 10.1927C137.507 10.544 137.259 11.009 137.259 11.5877C137.259 12.0424 137.424 12.4247 137.755 12.7347C138.085 13.0447 138.488 13.2927 138.964 13.4787C139.439 13.644 140.142 13.861 141.072 14.1297C142.312 14.4604 143.324 14.8014 144.11 15.1527C144.916 15.4834 145.608 15.9794 146.187 16.6407C146.765 17.302 147.065 18.1804 147.086 19.2757C147.086 20.247 146.817 21.115 146.28 21.8797C145.742 22.6444 144.978 23.2437 143.986 23.6777C143.014 24.1117 141.867 24.3287 140.545 24.3287Z" fill="white"/>
<path d="M166.373 6.96869V24.0497H162.839V22.0347C162.281 22.7374 161.548 23.2954 160.638 23.7087C159.75 24.1014 158.799 24.2977 157.786 24.2977C156.443 24.2977 155.234 24.0187 154.159 23.4607C153.105 22.9027 152.268 22.076 151.648 20.9807C151.049 19.8854 150.749 18.5627 150.749 17.0127V6.96869H154.252V16.4857C154.252 18.015 154.635 19.193 155.399 20.0197C156.164 20.8257 157.208 21.2287 158.53 21.2287C159.853 21.2287 160.897 20.8257 161.661 20.0197C162.447 19.193 162.839 18.015 162.839 16.4857V6.96869H166.373Z" fill="white"/>
<path d="M191.713 6.68969C193.056 6.68969 194.255 6.96869 195.309 7.52669C196.384 8.08469 197.221 8.91135 197.82 10.0067C198.44 11.102 198.75 12.4247 198.75 13.9747V24.0497H195.247V14.5017C195.247 12.9724 194.865 11.8047 194.1 10.9987C193.335 10.172 192.292 9.75869 190.969 9.75869C189.646 9.75869 188.592 10.172 187.807 10.9987C187.042 11.8047 186.66 12.9724 186.66 14.5017V24.0497H183.157V14.5017C183.157 12.9724 182.775 11.8047 182.01 10.9987C181.245 10.172 180.202 9.75869 178.879 9.75869C177.556 9.75869 176.502 10.172 175.717 10.9987C174.952 11.8047 174.57 12.9724 174.57 14.5017V24.0497H171.036V6.96869H174.57V8.92169C175.149 8.21902 175.882 7.67135 176.771 7.27869C177.66 6.88602 178.61 6.68969 179.623 6.68969C180.987 6.68969 182.206 6.97902 183.281 7.55769C184.356 8.13635 185.182 8.97335 185.761 10.0687C186.278 9.03535 187.084 8.21902 188.179 7.61969C189.274 6.99969 190.452 6.68969 191.713 6.68969Z" fill="white"/>
<path d="M213.098 4.70569C212.457 4.70569 211.92 4.48869 211.486 4.05469C211.052 3.62069 210.835 3.08335 210.835 2.44269C210.835 1.80202 211.052 1.26469 211.486 0.830688C211.92 0.396687 212.457 0.179688 213.098 0.179688C213.718 0.179688 214.245 0.396687 214.679 0.830688C215.113 1.26469 215.33 1.80202 215.33 2.44269C215.33 3.08335 215.113 3.62069 214.679 4.05469C214.245 4.48869 213.718 4.70569 213.098 4.70569ZM214.834 6.96869V24.0497H211.3V6.96869H214.834Z" fill="white"/>
<path d="M225.674 24.3287C224.33 24.3287 223.121 24.091 222.047 23.6157C220.993 23.1197 220.156 22.4584 219.536 21.6317C218.916 20.7844 218.585 19.844 218.544 18.8107H222.202C222.264 19.534 222.605 20.1437 223.225 20.6397C223.865 21.115 224.661 21.3527 225.612 21.3527C226.604 21.3527 227.368 21.1667 227.906 20.7947C228.464 20.402 228.743 19.906 228.743 19.3067C228.743 18.666 228.433 18.1907 227.813 17.8807C227.213 17.5707 226.252 17.2297 224.93 16.8577C223.648 16.5064 222.605 16.1654 221.799 15.8347C220.993 15.504 220.29 14.9977 219.691 14.3157C219.112 13.6337 218.823 12.7347 218.823 11.6187C218.823 10.7094 219.091 9.88269 219.629 9.13869C220.166 8.37402 220.931 7.77469 221.923 7.34069C222.935 6.90669 224.093 6.68969 225.395 6.68969C227.337 6.68969 228.898 7.18569 230.076 8.17769C231.274 9.14902 231.915 10.482 231.998 12.1767H228.464C228.402 11.412 228.092 10.8024 227.534 10.3477C226.976 9.89302 226.221 9.66569 225.271 9.66569C224.341 9.66569 223.628 9.84136 223.132 10.1927C222.636 10.544 222.388 11.009 222.388 11.5877C222.388 12.0424 222.553 12.4247 222.884 12.7347C223.214 13.0447 223.617 13.2927 224.093 13.4787C224.568 13.644 225.271 13.861 226.201 14.1297C227.441 14.4604 228.453 14.8014 229.239 15.1527C230.045 15.4834 230.737 15.9794 231.316 16.6407C231.894 17.302 232.194 18.1804 232.215 19.2757C232.215 20.247 231.946 21.115 231.409 21.8797C230.871 22.6444 230.107 23.2437 229.115 23.6777C228.143 24.1117 226.996 24.3287 225.674 24.3287Z" fill="white"/>
<path d="M250.286 24.3287C248.943 24.3287 247.734 24.091 246.659 23.6157C245.605 23.1197 244.768 22.4584 244.148 21.6317C243.528 20.7844 243.197 19.844 243.156 18.8107H246.814C246.876 19.534 247.217 20.1437 247.837 20.6397C248.478 21.115 249.273 21.3527 250.224 21.3527C251.216 21.3527 251.981 21.1667 252.518 20.7947C253.076 20.402 253.355 19.906 253.355 19.3067C253.355 18.666 253.045 18.1907 252.425 17.8807C251.826 17.5707 250.865 17.2297 249.542 16.8577C248.261 16.5064 247.217 16.1654 246.411 15.8347C245.605 15.504 244.902 14.9977 244.303 14.3157C243.724 13.6337 243.435 12.7347 243.435 11.6187C243.435 10.7094 243.704 9.88269 244.241 9.13869C244.778 8.37402 245.543 7.77469 246.535 7.34069C247.548 6.90669 248.705 6.68969 250.007 6.68969C251.95 6.68969 253.51 7.18569 254.688 8.17769C255.887 9.14902 256.527 10.482 256.61 12.1767H253.076C253.014 11.412 252.704 10.8024 252.146 10.3477C251.588 9.89302 250.834 9.66569 249.883 9.66569C248.953 9.66569 248.24 9.84136 247.744 10.1927C247.248 10.544 247 11.009 247 11.5877C247 12.0424 247.165 12.4247 247.496 12.7347C247.827 13.0447 248.23 13.2927 248.705 13.4787C249.18 13.644 249.883 13.861 250.813 14.1297C252.053 14.4604 253.066 14.8014 253.851 15.1527C254.657 15.4834 255.349 15.9794 255.928 16.6407C256.507 17.302 256.806 18.1804 256.827 19.2757C256.827 20.247 256.558 21.115 256.021 21.8797C255.484 22.6444 254.719 23.2437 253.727 23.6777C252.756 24.1117 251.609 24.3287 250.286 24.3287Z" fill="white"/>
<path d="M262.443 4.70569C261.803 4.70569 261.265 4.48869 260.831 4.05469C260.397 3.62069 260.18 3.08335 260.18 2.44269C260.18 1.80202 260.397 1.26469 260.831 0.830688C261.265 0.396687 261.803 0.179688 262.443 0.179688C263.063 0.179688 263.591 0.396687 264.025 0.830688C264.458 1.26469 264.676 1.80202 264.676 2.44269C264.676 3.08335 264.458 3.62069 264.025 4.05469C263.591 4.48869 263.063 4.70569 262.443 4.70569ZM264.18 6.96869V24.0497H260.646V6.96869H264.18Z" fill="white"/>
<path d="M289.496 6.68969C290.84 6.68969 292.038 6.96869 293.092 7.52669C294.167 8.08469 295.004 8.91135 295.603 10.0067C296.223 11.102 296.533 12.4247 296.533 13.9747V24.0497H293.03V14.5017C293.03 12.9724 292.648 11.8047 291.883 10.9987C291.119 10.172 290.075 9.75869 288.752 9.75869C287.43 9.75869 286.376 10.172 285.59 10.9987C284.826 11.8047 284.443 12.9724 284.443 14.5017V24.0497H280.94V14.5017C280.94 12.9724 280.558 11.8047 279.793 10.9987C279.029 10.172 277.985 9.75869 276.662 9.75869C275.34 9.75869 274.286 10.172 273.5 10.9987C272.736 11.8047 272.353 12.9724 272.353 14.5017V24.0497H268.819V6.96869H272.353V8.92169C272.932 8.21902 273.666 7.67135 274.554 7.27869C275.443 6.88602 276.394 6.68969 277.406 6.68969C278.77 6.68969 279.99 6.97902 281.064 7.55769C282.139 8.13635 282.966 8.97335 283.544 10.0687C284.061 9.03535 284.867 8.21902 285.962 7.61969C287.058 6.99969 288.236 6.68969 289.496 6.68969Z" fill="white"/>
<path d="M304.564 9.47969C305.164 8.69435 305.98 8.03302 307.013 7.49569C308.047 6.95835 309.214 6.68969 310.516 6.68969C312.004 6.68969 313.358 7.06169 314.577 7.80569C315.817 8.52902 316.789 9.55202 317.491 10.8747C318.194 12.1974 318.545 13.7164 318.545 15.4317C318.545 17.147 318.194 18.6867 317.491 20.0507C316.789 21.394 315.817 22.448 314.577 23.2127C313.358 23.9567 312.004 24.3287 310.516 24.3287C309.214 24.3287 308.057 24.0704 307.044 23.5537C306.032 23.0164 305.205 22.355 304.564 21.5697V32.1717H301.03V6.96869H304.564V9.47969ZM314.949 15.4317C314.949 14.2537 314.701 13.241 314.205 12.3937C313.73 11.5257 313.089 10.8747 312.283 10.4407C311.498 9.98602 310.651 9.75869 309.741 9.75869C308.853 9.75869 308.005 9.98602 307.199 10.4407C306.414 10.8954 305.773 11.5567 305.277 12.4247C304.802 13.2927 304.564 14.3157 304.564 15.4937C304.564 16.6717 304.802 17.705 305.277 18.5937C305.773 19.4617 306.414 20.123 307.199 20.5777C308.005 21.0324 308.853 21.2597 309.741 21.2597C310.651 21.2597 311.498 21.0324 312.283 20.5777C313.089 20.1024 313.73 19.4204 314.205 18.5317C314.701 17.643 314.949 16.6097 314.949 15.4317Z" fill="white"/>
<path d="M325.574 1.10969V24.0497H322.04V1.10969H325.574Z" fill="white"/>
<path d="M345.59 6.96869L335.112 32.0787H331.454L334.926 23.7707L328.199 6.96869H332.136L336.941 19.9887L341.932 6.96869H345.59Z" fill="white"/>
<path d="M355.132 15.4317C355.132 13.7164 355.483 12.1974 356.186 10.8747C356.909 9.55202 357.88 8.52902 359.1 7.80569C360.34 7.06169 361.714 6.68969 363.223 6.68969C364.339 6.68969 365.434 6.93769 366.509 7.43369C367.604 7.90902 368.472 8.54969 369.113 9.35569V1.10969H372.678V24.0497H369.113V21.4767C368.534 22.3034 367.728 22.9854 366.695 23.5227C365.682 24.06 364.514 24.3287 363.192 24.3287C361.704 24.3287 360.34 23.9567 359.1 23.2127C357.88 22.448 356.909 21.394 356.186 20.0507C355.483 18.6867 355.132 17.147 355.132 15.4317ZM369.113 15.4937C369.113 14.3157 368.865 13.2927 368.369 12.4247C367.893 11.5567 367.263 10.8954 366.478 10.4407C365.692 9.98602 364.845 9.75869 363.936 9.75869C363.026 9.75869 362.179 9.98602 361.394 10.4407C360.608 10.8747 359.968 11.5257 359.472 12.3937C358.996 13.241 358.759 14.2537 358.759 15.4317C358.759 16.6097 358.996 17.643 359.472 18.5317C359.968 19.4204 360.608 20.1024 361.394 20.5777C362.2 21.0324 363.047 21.2597 363.936 21.2597C364.845 21.2597 365.692 21.0324 366.478 20.5777C367.263 20.123 367.893 19.4617 368.369 18.5937C368.865 17.705 369.113 16.6717 369.113 15.4937Z" fill="white"/>
<path d="M392.788 6.96869V24.0497H389.254V22.0347C388.696 22.7374 387.963 23.2954 387.053 23.7087C386.165 24.1014 385.214 24.2977 384.201 24.2977C382.858 24.2977 381.649 24.0187 380.574 23.4607C379.52 22.9027 378.683 22.076 378.063 20.9807C377.464 19.8854 377.164 18.5627 377.164 17.0127V6.96869H380.667V16.4857C380.667 18.015 381.05 19.193 381.814 20.0197C382.579 20.8257 383.623 21.2287 384.945 21.2287C386.268 21.2287 387.312 20.8257 388.076 20.0197C388.862 19.193 389.254 18.015 389.254 16.4857V6.96869H392.788Z" fill="white"/>
<path d="M418.128 6.68969C419.471 6.68969 420.67 6.96869 421.724 7.52669C422.799 8.08469 423.636 8.91135 424.235 10.0067C424.855 11.102 425.165 12.4247 425.165 13.9747V24.0497H421.662V14.5017C421.662 12.9724 421.28 11.8047 420.515 10.9987C419.75 10.172 418.707 9.75869 417.384 9.75869C416.061 9.75869 415.008 10.172 414.222 10.9987C413.457 11.8047 413.075 12.9724 413.075 14.5017V24.0497H409.572V14.5017C409.572 12.9724 409.19 11.8047 408.425 10.9987C407.66 10.172 406.617 9.75869 405.294 9.75869C403.971 9.75869 402.918 10.172 402.132 10.9987C401.367 11.8047 400.985 12.9724 400.985 14.5017V24.0497H397.451V6.96869H400.985V8.92169C401.564 8.21902 402.297 7.67135 403.186 7.27869C404.075 6.88602 405.025 6.68969 406.038 6.68969C407.402 6.68969 408.621 6.97902 409.696 7.55769C410.771 8.13635 411.597 8.97335 412.176 10.0687C412.693 9.03535 413.499 8.21902 414.594 7.61969C415.689 6.99969 416.867 6.68969 418.128 6.68969Z" fill="white"/>
<path d="M450.339 6.68969C451.682 6.68969 452.881 6.96869 453.935 7.52669C455.01 8.08469 455.847 8.91135 456.446 10.0067C457.066 11.102 457.376 12.4247 457.376 13.9747V24.0497H453.873V14.5017C453.873 12.9724 453.491 11.8047 452.726 10.9987C451.961 10.172 450.918 9.75869 449.595 9.75869C448.272 9.75869 447.218 10.172 446.433 10.9987C445.668 11.8047 445.286 12.9724 445.286 14.5017V24.0497H441.783V14.5017C441.783 12.9724 441.401 11.8047 440.636 10.9987C439.871 10.172 438.828 9.75869 437.505 9.75869C436.182 9.75869 435.128 10.172 434.343 10.9987C433.578 11.8047 433.196 12.9724 433.196 14.5017V24.0497H429.662V6.96869H433.196V8.92169C433.775 8.21902 434.508 7.67135 435.397 7.27869C436.286 6.88602 437.236 6.68969 438.249 6.68969C439.613 6.68969 440.832 6.97902 441.907 7.55769C442.982 8.13635 443.808 8.97335 444.387 10.0687C444.904 9.03535 445.71 8.21902 446.805 7.61969C447.9 6.99969 449.078 6.68969 450.339 6.68969Z" fill="white"/>
<path d="M477.249 6.96869L466.771 32.0787H463.113L466.585 23.7707L459.858 6.96869H463.795L468.6 19.9887L473.591 6.96869H477.249Z" fill="white"/>
<path d="M481.342 24.2667C480.701 24.2667 480.164 24.0497 479.73 23.6157C479.296 23.1817 479.079 22.6444 479.079 22.0037C479.079 21.363 479.296 20.8257 479.73 20.3917C480.164 19.9577 480.701 19.7407 481.342 19.7407C481.962 19.7407 482.489 19.9577 482.923 20.3917C483.357 20.8257 483.574 21.363 483.574 22.0037C483.574 22.6444 483.357 23.1817 482.923 23.6157C482.489 24.0497 481.962 24.2667 481.342 24.2667Z" fill="white"/>
</svg>
